<?xml version="1.0" encoding="UTF-8"?>
<!--Generator: Apple Native CoreSVG 149-->
<!DOCTYPE svg
PUBLIC "-//W3C//DTD SVG 1.1//EN"
       "http://www.w3.org/Graphics/SVG/1.1/DTD/svg11.dtd">
<svg version="1.1" xmlns="http://www.w3.org/2000/svg" xmlns:xlink="http://www.w3.org/1999/xlink" width="3300" height="2200">
 <!--glyph: "uni100579.medium", point size: 100.000000, font version: "Version 16.0d18e1", template writer version: "8"-->
 <g id="Notes">
  <rect height="2200" id="artboard" style="fill:white;opacity:1" width="3300" x="0" y="0"/>
  <line id="" style="fill:none;stroke:black;opacity:1;stroke-width:0.5;" x1="263" x2="3036" y1="292" y2="292"/>
  <text style="stroke:none;fill:black;font-family:-apple-system,&quot;SF Pro Display&quot;,&quot;SF Pro Text&quot;,Helvetica,sans-serif;font-weight:bold;" transform="matrix(1 0 0 1 263 322)">Weight/Scale Variations</text>
  <text style="stroke:none;fill:black;font-family:-apple-system,&quot;SF Pro Display&quot;,&quot;SF Pro Text&quot;,Helvetica,sans-serif;text-anchor:middle;" transform="matrix(1 0 0 1 559.711 322)">Ultralight</text>
  <text style="stroke:none;fill:black;font-family:-apple-system,&quot;SF Pro Display&quot;,&quot;SF Pro Text&quot;,Helvetica,sans-serif;text-anchor:middle;" transform="matrix(1 0 0 1 856.422 322)">Thin</text>
  <text style="stroke:none;fill:black;font-family:-apple-system,&quot;SF Pro Display&quot;,&quot;SF Pro Text&quot;,Helvetica,sans-serif;text-anchor:middle;" transform="matrix(1 0 0 1 1153.13 322)">Light</text>
  <text style="stroke:none;fill:black;font-family:-apple-system,&quot;SF Pro Display&quot;,&quot;SF Pro Text&quot;,Helvetica,sans-serif;text-anchor:middle;" transform="matrix(1 0 0 1 1449.84 322)">Regular</text>
  <text style="stroke:none;fill:black;font-family:-apple-system,&quot;SF Pro Display&quot;,&quot;SF Pro Text&quot;,Helvetica,sans-serif;text-anchor:middle;" transform="matrix(1 0 0 1 1746.56 322)">Medium</text>
  <text style="stroke:none;fill:black;font-family:-apple-system,&quot;SF Pro Display&quot;,&quot;SF Pro Text&quot;,Helvetica,sans-serif;text-anchor:middle;" transform="matrix(1 0 0 1 2043.27 322)">Semibold</text>
  <text style="stroke:none;fill:black;font-family:-apple-system,&quot;SF Pro Display&quot;,&quot;SF Pro Text&quot;,Helvetica,sans-serif;text-anchor:middle;" transform="matrix(1 0 0 1 2339.98 322)">Bold</text>
  <text style="stroke:none;fill:black;font-family:-apple-system,&quot;SF Pro Display&quot;,&quot;SF Pro Text&quot;,Helvetica,sans-serif;text-anchor:middle;" transform="matrix(1 0 0 1 2636.69 322)">Heavy</text>
  <text style="stroke:none;fill:black;font-family:-apple-system,&quot;SF Pro Display&quot;,&quot;SF Pro Text&quot;,Helvetica,sans-serif;text-anchor:middle;" transform="matrix(1 0 0 1 2933.4 322)">Black</text>
  <line id="" style="fill:none;stroke:black;opacity:1;stroke-width:0.5;" x1="263" x2="3036" y1="1903" y2="1903"/>
  <g id="" transform="matrix(1 0 0 1 263 1933)">
   <path d="M9.24805 0.830078C13.5547 0.830078 17.1387-2.74414 17.1387-7.05078C17.1387-11.3574 13.5449-14.9316 9.23828-14.9316C4.94141-14.9316 1.36719-11.3574 1.36719-7.05078C1.36719-2.74414 4.95117 0.830078 9.24805 0.830078ZM9.24805-0.654297C5.70312-0.654297 2.87109-3.49609 2.87109-7.05078C2.87109-10.6055 5.69336-13.4473 9.23828-13.4473C12.793-13.4473 15.6348-10.6055 15.6445-7.05078C15.6543-3.49609 12.8027-0.654297 9.24805-0.654297ZM6.39648-6.31836L8.50586-6.31836L8.50586-4.19922C8.50586-3.75977 8.79883-3.45703 9.22852-3.45703C9.67773-3.45703 9.9707-3.75977 9.9707-4.19922L9.9707-6.31836L12.0996-6.31836C12.5391-6.31836 12.8418-6.61133 12.8418-7.04102C12.8418-7.48047 12.5391-7.7832 12.0996-7.7832L9.9707-7.7832L9.9707-9.89258C9.9707-10.3418 9.67773-10.6445 9.22852-10.6445C8.79883-10.6445 8.50586-10.3418 8.50586-9.89258L8.50586-7.7832L6.39648-7.7832C5.94727-7.7832 5.64453-7.48047 5.64453-7.04102C5.64453-6.61133 5.94727-6.31836 6.39648-6.31836Z"/>
  </g>
  <g id="" transform="matrix(1 0 0 1 281.506 1933)">
   <path d="M11.709 2.91016C17.1582 2.91016 21.6699-1.61133 21.6699-7.05078C21.6699-12.5 17.1484-17.0117 11.6992-17.0117C6.25977-17.0117 1.74805-12.5 1.74805-7.05078C1.74805-1.61133 6.26953 2.91016 11.709 2.91016ZM11.709 1.25C7.09961 1.25 3.41797-2.44141 3.41797-7.05078C3.41797-11.6602 7.08984-15.3516 11.6992-15.3516C16.3086-15.3516 20-11.6602 20.0098-7.05078C20.0195-2.44141 16.3184 1.25 11.709 1.25ZM7.98828-6.23047L10.8789-6.23047L10.8789-3.32031C10.8789-2.83203 11.2109-2.5 11.6895-2.5C12.1777-2.5 12.5195-2.83203 12.5195-3.32031L12.5195-6.23047L15.4297-6.23047C15.918-6.23047 16.25-6.5625 16.25-7.04102C16.25-7.5293 15.918-7.87109 15.4297-7.87109L12.5195-7.87109L12.5195-10.7617C12.5195-11.2695 12.1777-11.6016 11.6895-11.6016C11.2109-11.6016 10.8789-11.2598 10.8789-10.7617L10.8789-7.87109L7.98828-7.87109C7.48047-7.87109 7.14844-7.5293 7.14844-7.04102C7.14844-6.5625 7.49023-6.23047 7.98828-6.23047Z"/>
  </g>
  <g id="" transform="matrix(1 0 0 1 304.924 1933)">
   <path d="M14.9707 5.66406C21.9336 5.66406 27.6953-0.0976562 27.6953-7.05078C27.6953-14.0137 21.9238-19.7754 14.9609-19.7754C8.00781-19.7754 2.25586-14.0137 2.25586-7.05078C2.25586-0.0976562 8.01758 5.66406 14.9707 5.66406ZM14.9707 3.84766C8.93555 3.84766 4.08203-1.01562 4.08203-7.05078C4.08203-13.0957 8.92578-17.9492 14.9609-17.9492C21.0059-17.9492 25.8594-13.0957 25.8691-7.05078C25.8789-1.01562 21.0156 3.84766 14.9707 3.84766ZM10.0586-6.14258L14.0625-6.14258L14.0625-2.12891C14.0625-1.5918 14.4336-1.2207 14.9512-1.2207C15.4883-1.2207 15.8594-1.5918 15.8594-2.12891L15.8594-6.14258L19.8828-6.14258C20.4102-6.14258 20.791-6.51367 20.791-7.03125C20.791-7.56836 20.4199-7.94922 19.8828-7.94922L15.8594-7.94922L15.8594-11.9531C15.8594-12.5098 15.4883-12.8809 14.9512-12.8809C14.4336-12.8809 14.0625-12.5 14.0625-11.9531L14.0625-7.94922L10.0586-7.94922C9.50195-7.94922 9.13086-7.56836 9.13086-7.03125C9.13086-6.51367 9.51172-6.14258 10.0586-6.14258Z"/>
  </g>
  <text style="stroke:none;fill:black;font-family:-apple-system,&quot;SF Pro Display&quot;,&quot;SF Pro Text&quot;,Helvetica,sans-serif;font-weight:bold;" transform="matrix(1 0 0 1 263 1953)">Design Variations</text>
  <text style="stroke:none;fill:black;font-family:-apple-system,&quot;SF Pro Display&quot;,&quot;SF Pro Text&quot;,Helvetica,sans-serif;" transform="matrix(1 0 0 1 263 1971)">Symbols are supported in up to nine weights and three scales.</text>
  <text style="stroke:none;fill:black;font-family:-apple-system,&quot;SF Pro Display&quot;,&quot;SF Pro Text&quot;,Helvetica,sans-serif;" transform="matrix(1 0 0 1 263 1989)">For optimal layout with text and other symbols, vertically align</text>
  <text style="stroke:none;fill:black;font-family:-apple-system,&quot;SF Pro Display&quot;,&quot;SF Pro Text&quot;,Helvetica,sans-serif;" transform="matrix(1 0 0 1 263 2007)">symbols with the adjacent text.</text>
  <line id="" style="fill:none;stroke:#00AEEF;stroke-width:0.5;opacity:1.0;" x1="776" x2="776" y1="1919" y2="1933"/>
  <g id="" transform="matrix(1 0 0 1 776 1933)">
   <path d="M3.31055 0.126953C3.82812 0.126953 4.08203-0.0683594 4.26758-0.605469L5.52734-4.0625L11.2891-4.0625L12.5488-0.605469C12.7344-0.0683594 12.9883 0.126953 13.4961 0.126953C14.0137 0.126953 14.3457-0.185547 14.3457-0.673828C14.3457-0.839844 14.3164-0.986328 14.2383-1.20117L9.6582-13.3887C9.43359-13.9941 9.0332-14.2871 8.4082-14.2871C7.80273-14.2871 7.39258-13.9941 7.17773-13.3984L2.59766-1.19141C2.51953-0.976562 2.49023-0.830078 2.49023-0.664062C2.49023-0.175781 2.80273 0.126953 3.31055 0.126953ZM6.00586-5.53711L8.37891-12.1094L8.42773-12.1094L10.8008-5.53711Z"/>
  </g>
  <line id="" style="fill:none;stroke:#00AEEF;stroke-width:0.5;opacity:1.0;" x1="792.836" x2="792.836" y1="1919" y2="1933"/>
  <text style="stroke:none;fill:black;font-family:-apple-system,&quot;SF Pro Display&quot;,&quot;SF Pro Text&quot;,Helvetica,sans-serif;font-weight:bold;" transform="matrix(1 0 0 1 776 1953)">Margins</text>
  <text style="stroke:none;fill:black;font-family:-apple-system,&quot;SF Pro Display&quot;,&quot;SF Pro Text&quot;,Helvetica,sans-serif;" transform="matrix(1 0 0 1 776 1971)">Leading and trailing margins on the left and right side of each symbol</text>
  <text style="stroke:none;fill:black;font-family:-apple-system,&quot;SF Pro Display&quot;,&quot;SF Pro Text&quot;,Helvetica,sans-serif;" transform="matrix(1 0 0 1 776 1989)">can be adjusted by modifying the x-location of the margin guidelines.</text>
  <text style="stroke:none;fill:black;font-family:-apple-system,&quot;SF Pro Display&quot;,&quot;SF Pro Text&quot;,Helvetica,sans-serif;" transform="matrix(1 0 0 1 776 2007)">Modifications are automatically applied proportionally to all</text>
  <text style="stroke:none;fill:black;font-family:-apple-system,&quot;SF Pro Display&quot;,&quot;SF Pro Text&quot;,Helvetica,sans-serif;" transform="matrix(1 0 0 1 776 2025)">scales and weights.</text>
  <g id="" transform="matrix(1 0 0 1 1289 1933)">
   <path d="M2.8418 1.86523L4.54102 3.57422C5.40039 4.44336 6.38672 4.38477 7.31445 3.35938L17.4902-7.85156C17.7539-7.76367 18.0273-7.7832 18.3398-7.8418L19.4043-8.03711L20.0684-7.36328L20.0293-6.80664C19.9902-6.30859 20.1172-5.92773 20.6055-5.44922L21.3672-4.70703C21.8457-4.22852 22.4609-4.19922 22.9297-4.66797L25.8398-7.58789C26.3086-8.05664 26.2891-8.65234 25.8105-9.13086L25.0391-9.89258C24.5605-10.3711 24.1895-10.5273 23.7109-10.4883L23.1348-10.4395L22.4902-11.0742L22.7344-12.1973C22.8613-12.7637 22.7051-13.2031 22.1191-13.7891L19.9219-15.9766C16.582-19.2969 12.1484-19.2188 9.25781-16.3281C8.83789-15.918 8.80859-15.3418 9.04297-14.9512C9.27734-14.5898 9.73633-14.3555 10.3809-14.5215C11.8457-14.8633 13.3691-14.9219 14.7949-13.9844L14.209-12.5293C14.0137-12.0508 13.9844-11.6504 14.1113-11.2891L3.04688-0.898438C2.06055 0.0195312 1.98242 0.996094 2.8418 1.86523ZM10.752-15.957C13.1836-17.7344 16.4746-17.4316 18.7012-15.2051L21.1328-12.793C21.3672-12.5586 21.4062-12.373 21.3379-12.0312L21.0156-10.5469L22.5195-9.0625L23.5059-9.12109C23.7598-9.13086 23.8379-9.11133 24.0332-8.91602L24.6094-8.33984L22.168-5.89844L21.5918-6.47461C21.3965-6.66992 21.3672-6.74805 21.377-7.01172L21.4453-7.98828L19.9512-9.47266L18.4277-9.21875C18.1055-9.15039 17.959-9.17969 17.7148-9.41406L15.7129-11.416C15.459-11.6504 15.4297-11.8164 15.5859-12.1875L16.4648-14.2773C14.9023-15.7324 12.8711-16.3574 10.8398-15.7617C10.6836-15.7227 10.625-15.8496 10.752-15.957ZM5.27344 2.30469L4.10156 1.14258C3.63281 0.683594 3.74023 0.341797 4.14062-0.0195312L14.9512-10.1953L16.416-8.71094L6.42578 2.27539C6.07422 2.67578 5.74219 2.77344 5.27344 2.30469Z"/>
  </g>
  <text style="stroke:none;fill:black;font-family:-apple-system,&quot;SF Pro Display&quot;,&quot;SF Pro Text&quot;,Helvetica,sans-serif;font-weight:bold;" transform="matrix(1 0 0 1 1289 1953)">Exporting</text>
  <text style="stroke:none;fill:black;font-family:-apple-system,&quot;SF Pro Display&quot;,&quot;SF Pro Text&quot;,Helvetica,sans-serif;" transform="matrix(1 0 0 1 1289 1971)">Symbols should be outlined when exporting to ensure the</text>
  <text style="stroke:none;fill:black;font-family:-apple-system,&quot;SF Pro Display&quot;,&quot;SF Pro Text&quot;,Helvetica,sans-serif;" transform="matrix(1 0 0 1 1289 1989)">design is preserved when submitting to Xcode.</text>
  <text id="template-version" style="stroke:none;fill:black;font-family:-apple-system,&quot;SF Pro Display&quot;,&quot;SF Pro Text&quot;,Helvetica,sans-serif;text-anchor:end;" transform="matrix(1 0 0 1 3036 1933)">Template v.2.0</text>
  <text style="stroke:none;fill:black;font-family:-apple-system,&quot;SF Pro Display&quot;,&quot;SF Pro Text&quot;,Helvetica,sans-serif;text-anchor:end;" transform="matrix(1 0 0 1 3036 1951)">Requires Xcode 12 or greater</text>
  <text style="stroke:none;fill:black;font-family:-apple-system,&quot;SF Pro Display&quot;,&quot;SF Pro Text&quot;,Helvetica,sans-serif;text-anchor:end;" transform="matrix(1 0 0 1 3036 1969)">Generated from doc.text.magnifyingglass</text>
  <text style="stroke:none;fill:black;font-family:-apple-system,&quot;SF Pro Display&quot;,&quot;SF Pro Text&quot;,Helvetica,sans-serif;text-anchor:end;" transform="matrix(1 0 0 1 3036 1987)">Typeset at 100 points</text>
  <text style="stroke:none;fill:black;font-family:-apple-system,&quot;SF Pro Display&quot;,&quot;SF Pro Text&quot;,Helvetica,sans-serif;" transform="matrix(1 0 0 1 263 726)">Small</text>
  <text style="stroke:none;fill:black;font-family:-apple-system,&quot;SF Pro Display&quot;,&quot;SF Pro Text&quot;,Helvetica,sans-serif;" transform="matrix(1 0 0 1 263 1156)">Medium</text>
  <text style="stroke:none;fill:black;font-family:-apple-system,&quot;SF Pro Display&quot;,&quot;SF Pro Text&quot;,Helvetica,sans-serif;" transform="matrix(1 0 0 1 263 1586)">Large</text>
 </g>
 <g id="Guides">
  <g id="H-reference" style="fill:#27AAE1;stroke:none;" transform="matrix(1 0 0 1 339 696)">
   <path d="M0.976562 0L3.66211 0L12.9883-24.4629L45.752-24.4629L55.127 0L57.7637 0L30.6152-70.459L28.125-70.459ZM29.3457-67.1387L29.4434-67.1387L44.873-26.709L13.8672-26.709Z"/>
  </g>
  <line id="Baseline-S" style="fill:none;stroke:#27AAE1;opacity:1;stroke-width:0.5;" x1="263" x2="3036" y1="696" y2="696"/>
  <line id="Capline-S" style="fill:none;stroke:#27AAE1;opacity:1;stroke-width:0.5;" x1="263" x2="3036" y1="625.541" y2="625.541"/>
  <g id="H-reference" style="fill:#27AAE1;stroke:none;" transform="matrix(1 0 0 1 339 1126)">
   <path d="M0.976562 0L3.66211 0L12.9883-24.4629L45.752-24.4629L55.127 0L57.7637 0L30.6152-70.459L28.125-70.459ZM29.3457-67.1387L29.4434-67.1387L44.873-26.709L13.8672-26.709Z"/>
  </g>
  <line id="Baseline-M" style="fill:none;stroke:#27AAE1;opacity:1;stroke-width:0.5;" x1="263" x2="3036" y1="1126" y2="1126"/>
  <line id="Capline-M" style="fill:none;stroke:#27AAE1;opacity:1;stroke-width:0.5;" x1="263" x2="3036" y1="1055.54" y2="1055.54"/>
  <g id="H-reference" style="fill:#27AAE1;stroke:none;" transform="matrix(1 0 0 1 339 1556)">
   <path d="M0.976562 0L3.66211 0L12.9883-24.4629L45.752-24.4629L55.127 0L57.7637 0L30.6152-70.459L28.125-70.459ZM29.3457-67.1387L29.4434-67.1387L44.873-26.709L13.8672-26.709Z"/>
  </g>
  <line id="Baseline-L" style="fill:none;stroke:#27AAE1;opacity:1;stroke-width:0.5;" x1="263" x2="3036" y1="1556" y2="1556"/>
  <line id="Capline-L" style="fill:none;stroke:#27AAE1;opacity:1;stroke-width:0.5;" x1="263" x2="3036" y1="1485.54" y2="1485.54"/>
  <line id="left-margin" style="fill:none;stroke:#00AEEF;stroke-width:0.5;opacity:1.0;" x1="1393.3" x2="1393.3" y1="1030.79" y2="1150.12"/>
  <line id="right-margin" style="fill:none;stroke:#00AEEF;stroke-width:0.5;opacity:1.0;" x1="1506.39" x2="1506.39" y1="1030.79" y2="1150.12"/>
 </g>
 <g id="Symbols">
  <g id="Black-L" transform="matrix(1 0 0 1 2856.08 1556)">
   <path d="M39.8926 32.8613L78.418 32.8613C73.1934 27.4414 69.6777 20.3613 68.7012 12.5977L42.7734 12.5977C38.2324 12.5977 36.3281 10.498 36.3281 6.25L36.3281-81.3965C36.3281-85.6445 38.2324-87.793 42.7734-87.793L104.785-87.793C109.229-87.793 111.23-85.6445 111.23-81.3965L111.23-29.9805C118.945-29.0527 126.025-25.5371 131.445-20.3613L131.445-84.1309C131.445-99.4141 122.852-108.057 107.666-108.057L39.8926-108.057C24.707-108.057 16.0645-99.3652 16.0645-84.1309L16.0645 8.93555C16.0645 24.2188 24.707 32.8613 39.8926 32.8613ZM53.7109-62.3047L93.9453-62.3047C96.4844-62.3047 98.4375-64.3066 98.4375-66.8457C98.4375-69.3848 96.4844-71.2891 93.9453-71.2891L53.7109-71.2891C51.0742-71.2891 49.1211-69.3848 49.1211-66.8457C49.1211-64.3066 51.0742-62.3047 53.7109-62.3047ZM53.7109-42.2852L93.9453-42.2852C96.4844-42.2852 98.4375-44.2871 98.4375-46.875C98.4375-49.3652 96.4844-51.2695 93.9453-51.2695L53.7109-51.2695C51.0742-51.2695 49.1211-49.3652 49.1211-46.875C49.1211-44.2871 51.0742-42.2852 53.7109-42.2852ZM105.225 32.8613C109.424 32.8613 113.428 31.8359 116.992 30.0781L128.174 41.2109C129.883 42.8711 131.885 43.6035 134.082 43.6035C138.428 43.6035 141.748 40.2344 141.748 35.7422C141.748 33.7402 141.064 31.7383 139.453 30.127L128.369 18.9941C130.371 15.2832 131.543 11.0352 131.543 6.54297C131.543-7.86133 119.775-19.7266 105.225-19.7266C90.8691-19.7266 78.9551-7.8125 78.9551 6.54297C78.9551 20.9961 90.8691 32.8613 105.225 32.8613ZM105.225 20.9961C97.2168 20.9961 90.7227 14.5996 90.7227 6.54297C90.7227-1.41602 97.2168-7.86133 105.225-7.86133C113.184-7.86133 119.678-1.41602 119.678 6.54297C119.678 14.5996 113.232 20.9961 105.225 20.9961Z"/>
  </g>
  <g id="Heavy-L" transform="matrix(1 0 0 1 2560.54 1556)">
   <path d="M38.7207 32.0801L76.8555 32.0801C72.2168 27.3926 68.9453 21.2891 67.7246 14.5996L41.0156 14.5996C35.8887 14.5996 33.5938 12.1094 33.5938 7.27539L33.5938-82.4219C33.5938-87.207 35.8887-89.7949 41.0156-89.7949L104.053-89.7949C109.082-89.7949 111.475-87.2559 111.475-82.4219L111.475-29.248C118.164-28.0762 124.268-24.8047 128.955-20.1172L128.955-84.5215C128.955-99.1699 120.898-107.275 106.348-107.275L38.7207-107.275C24.1699-107.275 16.0645-99.1699 16.0645-84.5215L16.0645 9.375C16.0645 23.9746 24.1699 32.0801 38.7207 32.0801ZM51.4648-64.2578L93.7012-64.2578C96.1426-64.2578 97.9492-66.1621 97.9492-68.5547C97.9492-70.8984 96.1426-72.7539 93.7012-72.7539L51.4648-72.7539C48.9258-72.7539 47.1191-70.8984 47.1191-68.5547C47.1191-66.1621 48.9258-64.2578 51.4648-64.2578ZM51.4648-43.75L93.7012-43.75C96.1426-43.75 97.9492-45.6543 97.9492-48.0957C97.9492-50.4395 96.1426-52.2461 93.7012-52.2461L51.4648-52.2461C48.9258-52.2461 47.1191-50.4395 47.1191-48.0957C47.1191-45.6543 48.9258-43.75 51.4648-43.75ZM102.49 32.0801C107.08 32.0801 111.377 30.957 115.137 28.9062L127.051 40.7715C128.613 42.334 130.469 43.0664 132.471 43.0664C136.426 43.0664 139.404 39.9902 139.404 35.8887C139.404 34.082 138.77 32.2754 137.305 30.8105L125.391 18.9453C127.686 14.9902 129.004 10.4492 129.004 5.56641C129.004-8.98438 117.139-20.8984 102.49-20.8984C87.9883-20.8984 76.0254-8.93555 76.0254 5.56641C76.0254 20.166 87.9883 32.0801 102.49 32.0801ZM102.49 21.2402C93.8477 21.2402 86.8164 14.3066 86.8164 5.56641C86.8164-2.97852 93.8477-10.0098 102.49-10.0098C111.084-10.0098 118.115-2.97852 118.115 5.56641C118.115 14.3066 111.133 21.2402 102.49 21.2402Z"/>
  </g>
  <g id="Bold-L" transform="matrix(1 0 0 1 2265.15 1556)">
   <path d="M37.4023 31.2988L75.0977 31.2988C71.0938 27.3438 68.0664 22.3633 66.6016 16.8457L39.0625 16.8457C33.3008 16.8457 30.5176 13.9648 30.5176 8.44727L30.5176-83.5449C30.5176-89.0137 33.3008-91.9922 39.0625-91.9922L103.223-91.9922C108.838-91.9922 111.768-89.0625 111.768-83.5449L111.768-28.3691C117.236-26.9531 122.266-23.9258 126.172-19.873L126.172-85.0098C126.172-98.9258 118.701-106.445 104.883-106.445L37.4023-106.445C23.584-106.445 16.0645-98.9258 16.0645-85.0098L16.0645 9.81445C16.0645 23.7793 23.5352 31.2988 37.4023 31.2988ZM48.9258-66.4551L93.457-66.4551C95.7031-66.4551 97.4121-68.2129 97.4121-70.459C97.4121-72.6562 95.7031-74.3652 93.457-74.3652L48.9258-74.3652C46.582-74.3652 44.873-72.6562 44.873-70.459C44.873-68.2129 46.582-66.4551 48.9258-66.4551ZM48.9258-45.4102L93.457-45.4102C95.7031-45.4102 97.4121-47.168 97.4121-49.4141C97.4121-51.6113 95.7031-53.3203 93.457-53.3203L48.9258-53.3203C46.582-53.3203 44.873-51.6113 44.873-49.4141C44.873-47.168 46.582-45.4102 48.9258-45.4102ZM99.4629 31.2988C104.395 31.2988 109.033 29.9316 113.037 27.5879L125.781 40.2832C127.246 41.748 128.906 42.3828 130.713 42.3828C134.18 42.3828 136.816 39.7461 136.816 36.084C136.816 34.4727 136.133 32.8613 134.863 31.5918L122.07 18.7988C124.707 14.6484 126.221 9.76562 126.221 4.54102C126.221-10.2051 114.258-22.2168 99.4629-22.2168C84.8145-22.2168 72.7051-10.1562 72.7051 4.54102C72.7051 19.2383 84.8145 31.2988 99.4629 31.2988ZM99.4629 21.4844C90.1367 21.4844 82.4707 13.916 82.4707 4.54102C82.4707-4.73633 90.1367-12.4023 99.4629-12.4023C108.74-12.4023 116.406-4.73633 116.406 4.54102C116.406 13.916 108.789 21.4844 99.4629 21.4844Z"/>
  </g>
  <g id="Semibold-L" transform="matrix(1 0 0 1 1969.34 1556)">
   <path d="M36.4746 30.7129L73.9258 30.7129C70.3125 27.2949 67.4805 23.0469 65.8691 18.3594L37.6953 18.3594C31.543 18.3594 28.418 15.2344 28.418 9.22852L28.418-84.3262C28.418-90.2344 31.4941-93.5547 37.6953-93.5547L102.637-93.5547C108.691-93.5547 111.914-90.332 111.914-84.3262L111.914-27.7832C116.65-26.1719 120.898-23.3398 124.268-19.7266L124.268-85.3027C124.268-98.7793 117.236-105.859 103.857-105.859L36.4746-105.859C23.1934-105.859 16.0645-98.7305 16.0645-85.3027L16.0645 10.1562C16.0645 23.6328 23.1445 30.7129 36.4746 30.7129ZM47.168-67.9688L93.2617-67.9688C95.4102-67.9688 97.0215-69.6777 97.0215-71.7773C97.0215-73.877 95.4102-75.4883 93.2617-75.4883L47.168-75.4883C44.9707-75.4883 43.3105-73.877 43.3105-71.7773C43.3105-69.6777 44.9707-67.9688 47.168-67.9688ZM47.168-46.582L93.2617-46.582C95.4102-46.582 97.0215-48.2422 97.0215-50.3906C97.0215-52.4414 95.4102-54.0527 93.2617-54.0527L47.168-54.0527C44.9707-54.0527 43.3105-52.4414 43.3105-50.3906C43.3105-48.2422 44.9707-46.582 47.168-46.582ZM97.4121 30.7129C102.588 30.7129 107.471 29.1992 111.572 26.6602L124.902 39.9902C126.318 41.3574 127.783 41.9434 129.492 41.9434C132.617 41.9434 134.961 39.5508 134.961 36.2305C134.961 34.7656 134.326 33.3008 133.154 32.1289L119.775 18.7012C122.607 14.4531 124.316 9.32617 124.316 3.80859C124.316-11.0352 112.207-23.1445 97.4121-23.1445C82.6172-23.1445 70.459-10.9863 70.459 3.80859C70.459 18.6035 82.6172 30.7129 97.4121 30.7129ZM97.4121 21.6309C87.5488 21.6309 79.4922 13.6719 79.4922 3.80859C79.4922-5.95703 87.5488-14.0625 97.4121-14.0625C107.129-14.0625 115.186-5.95703 115.186 3.80859C115.186 13.6719 107.178 21.6309 97.4121 21.6309Z"/>
  </g>
  <g id="Medium-L" transform="matrix(1 0 0 1 1673.31 1556)">
   <path d="M35.791 30.2734L72.998 30.2734C69.7266 27.2949 67.041 23.6328 65.2832 19.5312L36.6699 19.5312C30.1758 19.5312 26.8066 16.2109 26.8066 9.86328L26.8066-84.9121C26.8066-91.1621 30.127-94.6777 36.6699-94.6777L102.197-94.6777C108.594-94.6777 112.061-91.2598 112.061-84.9121L112.061-27.2949C116.162-25.5859 119.824-22.9004 122.803-19.5801L122.803-85.5469C122.803-98.6328 116.064-105.42 103.125-105.42L35.791-105.42C22.8516-105.42 16.0645-98.584 16.0645-85.5469L16.0645 10.4004C16.0645 23.4863 22.8027 30.2734 35.791 30.2734ZM45.8496-69.1406L93.1152-69.1406C95.2148-69.1406 96.7285-70.752 96.7285-72.7539C96.7285-74.7559 95.2148-76.3184 93.1152-76.3184L45.8496-76.3184C43.7012-76.3184 42.1387-74.7559 42.1387-72.7539C42.1387-70.752 43.7012-69.1406 45.8496-69.1406ZM45.8496-47.4609L93.1152-47.4609C95.2148-47.4609 96.7285-49.0234 96.7285-51.0742C96.7285-53.0762 95.2148-54.6387 93.1152-54.6387L45.8496-54.6387C43.7012-54.6387 42.1387-53.0762 42.1387-51.0742C42.1387-49.0234 43.7012-47.4609 45.8496-47.4609ZM95.8008 30.2734C101.221 30.2734 106.25 28.6621 110.449 25.9277L124.219 39.6973C125.586 41.0645 126.953 41.6504 128.564 41.6504C131.445 41.6504 133.594 39.4043 133.594 36.3281C133.594 34.9609 132.959 33.5938 131.885 32.5195L118.018 18.6035C121.045 14.2578 122.852 8.93555 122.852 3.27148C122.852-11.7188 110.693-23.8281 95.8008-23.8281C80.957-23.8281 68.7012-11.6211 68.7012 3.27148C68.7012 18.1641 80.957 30.2734 95.8008 30.2734ZM95.8008 21.7773C85.5469 21.7773 77.1973 13.4766 77.1973 3.27148C77.1973-6.88477 85.5469-15.2832 95.8008-15.2832C105.908-15.2832 114.307-6.88477 114.307 3.27148C114.307 13.4766 105.957 21.7773 95.8008 21.7773Z"/>
  </g>
  <g id="Regular-L" transform="matrix(1 0 0 1 1377.51 1556)">
   <path d="M34.9121 29.7363L71.8262 29.7363C68.9453 27.2461 66.4062 24.3652 64.5508 21.0449L35.3516 21.0449C28.418 21.0449 24.7559 17.4316 24.7559 10.6445L24.7559-85.6934C24.7559-92.3828 28.3691-96.1914 35.3516-96.1914L101.66-96.1914C108.447-96.1914 112.256-92.4805 112.256-85.6934L112.256-26.709C115.527-24.8047 118.457-22.3145 120.898-19.4336L120.898-85.8398C120.898-98.4863 114.6-104.834 102.1-104.834L34.9121-104.834C22.4609-104.834 16.0645-98.4375 16.0645-85.8398L16.0645 10.6934C16.0645 23.3398 22.4121 29.7363 34.9121 29.7363ZM44.0918-70.6543L92.9688-70.6543C94.9219-70.6543 96.3867-72.168 96.3867-74.0723C96.3867-75.9277 94.9219-77.3926 92.9688-77.3926L44.0918-77.3926C42.0898-77.3926 40.625-75.9277 40.625-74.0723C40.625-72.168 42.0898-70.6543 44.0918-70.6543ZM44.0918-48.584L92.9688-48.584C94.9219-48.584 96.3867-50.0977 96.3867-52.002C96.3867-53.9062 94.9219-55.3711 92.9688-55.3711L44.0918-55.3711C42.0898-55.3711 40.625-53.9062 40.625-52.002C40.625-50.0977 42.0898-48.584 44.0918-48.584ZM93.75 29.7363C99.3652 29.7363 104.639 27.9785 108.984 25L123.34 39.4043C124.658 40.6738 125.879 41.2109 127.344 41.2109C129.932 41.2109 131.836 39.209 131.836 36.4746C131.836 35.2051 131.201 34.0332 130.225 33.0566L115.723 18.5059C118.994 14.0137 120.898 8.49609 120.898 2.53906C120.898-12.5488 108.74-24.707 93.75-24.707C78.7598-24.707 66.4551-12.4512 66.4551 2.53906C66.4551 17.5293 78.7598 29.7363 93.75 29.7363ZM93.75 21.9727C83.0078 21.9727 74.2188 13.2324 74.2188 2.53906C74.2188-8.10547 83.0078-16.8945 93.75-16.8945C104.346-16.8945 113.086-8.10547 113.086 2.53906C113.086 13.2324 104.395 21.9727 93.75 21.9727Z"/>
  </g>
  <g id="Light-L" transform="matrix(1 0 0 1 1081.65 1556)">
   <path d="M33.9355 29.3945L74.1211 29.3945C71.8262 27.4902 69.7266 25.2441 68.1152 22.7539L34.2773 22.7539C26.6602 22.7539 22.7051 18.7988 22.7051 11.3281L22.7051-86.3281C22.7051-93.6523 26.6602-97.8516 34.2773-97.8516L101.172-97.8516C108.691-97.8516 112.744-93.8477 112.744-86.3281L112.744-21.9238C115.234-20.2637 117.48-18.2129 119.385-15.8691L119.385-86.5234C119.385-98.3887 113.281-104.492 101.514-104.492L33.9355-104.492C22.2656-104.492 16.0645-98.3398 16.0645-86.5234L16.0645 11.4258C16.0645 23.291 22.168 29.3945 33.9355 29.3945ZM42.5781-72.4609L92.9199-72.4609C94.4824-72.4609 95.6543-73.6816 95.6543-75.1953C95.6543-76.709 94.4824-77.8809 92.9199-77.8809L42.5781-77.8809C40.9668-77.8809 39.7949-76.709 39.7949-75.1953C39.7949-73.6816 40.9668-72.4609 42.5781-72.4609ZM42.5781-50.293L92.9199-50.293C94.4824-50.293 95.6543-51.5137 95.6543-53.0273C95.6543-54.541 94.4824-55.7129 92.9199-55.7129L42.5781-55.7129C40.9668-55.7129 39.7949-54.541 39.7949-53.0273C39.7949-51.5137 40.9668-50.293 42.5781-50.293ZM93.7012 29.3945C99.3164 29.3945 104.492 27.5879 108.691 24.5117L123.291 39.1602C124.365 40.2344 125.293 40.6738 126.514 40.6738C128.613 40.6738 130.078 39.1113 130.078 36.9629C130.078 35.8887 129.59 34.9609 128.76 34.1797L114.014 19.3848C117.383 15.0391 119.385 9.61914 119.385 3.71094C119.385-10.4492 107.861-21.9727 93.7012-21.9727C79.5898-21.9727 67.9688-10.4004 67.9688 3.71094C67.9688 17.8711 79.5898 29.3945 93.7012 29.3945ZM93.7012 23.3398C82.9102 23.3398 74.0723 14.502 74.0723 3.71094C74.0723-7.03125 82.9102-15.918 93.7012-15.918C104.443-15.918 113.281-7.03125 113.281 3.71094C113.281 14.502 104.492 23.3398 93.7012 23.3398Z"/>
  </g>
  <g id="Thin-L" transform="matrix(1 0 0 1 786.085 1556)">
   <path d="M32.666 28.9551L77.1973 28.9551C75.6348 27.7832 74.1211 26.5137 72.8027 25L32.8613 25C24.4141 25 20.0195 20.6055 20.0195 12.207L20.0195-87.207C20.0195-95.3613 24.4141-100.049 32.8613-100.049L100.537-100.049C108.984-100.049 113.379-95.6543 113.379-87.207L113.379-15.5762C114.844-14.2578 116.162-12.7441 117.334-11.1816L117.334-87.4023C117.334-98.291 111.572-104.004 100.732-104.004L32.666-104.004C21.9727-104.004 16.0645-98.2422 16.0645-87.4023L16.0645 12.3535C16.0645 23.1934 21.8262 28.9551 32.666 28.9551ZM40.5762-74.8535L92.8223-74.8535C93.8965-74.8535 94.7266-75.6836 94.7266-76.709C94.7266-77.6855 93.8965-78.5156 92.8223-78.5156L40.5762-78.5156C39.502-78.5156 38.6719-77.6855 38.6719-76.709C38.6719-75.6836 39.502-74.8535 40.5762-74.8535ZM40.5762-52.5391L92.8223-52.5391C93.8965-52.5391 94.7266-53.3691 94.7266-54.3945C94.7266-55.3711 93.8965-56.2012 92.8223-56.2012L40.5762-56.2012C39.502-56.2012 38.6719-55.3711 38.6719-54.3945C38.6719-53.3691 39.502-52.5391 40.5762-52.5391ZM93.7012 28.9551C99.1699 28.9551 104.248 27.0508 108.301 23.877L123.242 38.8672C123.975 39.5996 124.512 39.9414 125.439 39.9414C126.904 39.9414 127.832 38.916 127.832 37.5977C127.832 36.7188 127.49 36.2305 126.855 35.5957L111.768 20.459C115.234 16.3574 117.334 11.084 117.334 5.32227C117.334-7.71484 106.689-18.3594 93.7012-18.3594C80.7129-18.3594 70.0195-7.66602 70.0195 5.32227C70.0195 18.3105 80.7129 28.9551 93.7012 28.9551ZM93.7012 25.1465C82.7637 25.1465 73.8281 16.2109 73.8281 5.32227C73.8281-5.56641 82.7637-14.5508 93.7012-14.5508C104.59-14.5508 113.477-5.56641 113.477 5.32227C113.477 16.2109 104.59 25.1465 93.7012 25.1465Z"/>
  </g>
  <g id="Ultralight-L" transform="matrix(1 0 0 1 489.936 1556)">
   <path d="M32.0312 28.7109L78.7598 28.7109C77.5879 27.9297 76.3672 27.0996 75.2441 26.1719L32.1289 26.1719C23.2422 26.1719 18.6523 21.5332 18.6523 12.6465L18.6523-87.6953C18.6523-96.2402 23.2422-101.172 32.1289-101.172L100.195-101.172C109.131-101.172 113.721-96.582 113.721-87.6953L113.721-12.3047C114.648-11.1816 115.479-9.96094 116.26-8.78906L116.26-87.8418C116.26-98.1934 110.693-103.76 100.342-103.76L32.0312-103.76C21.7773-103.76 16.0645-98.1934 16.0645-87.8418L16.0645 12.793C16.0645 23.1934 21.6309 28.7109 32.0312 28.7109ZM39.5508-76.0742L92.7734-76.0742C93.6523-76.0742 94.2871-76.709 94.2871-77.4414C94.2871-78.2227 93.6523-78.8574 92.7734-78.8574L39.5508-78.8574C38.7207-78.8574 38.0859-78.2227 38.0859-77.4414C38.0859-76.709 38.7207-76.0742 39.5508-76.0742ZM39.5508-53.6621L92.7734-53.6621C93.6523-53.6621 94.2871-54.2969 94.2871-55.0781C94.2871-55.8105 93.6523-56.4453 92.7734-56.4453L39.5508-56.4453C38.7207-56.4453 38.0859-55.8105 38.0859-55.0781C38.0859-54.2969 38.7207-53.6621 39.5508-53.6621ZM93.7012 28.7109C99.1211 28.7109 104.15 26.7578 108.057 23.5352L123.193 38.7207C123.73 39.3066 124.121 39.5996 124.854 39.5996C125.977 39.5996 126.66 38.8184 126.66 37.8906C126.66 37.1582 126.367 36.8652 125.879 36.3281L110.645 21.0449C114.111 17.041 116.26 11.8164 116.26 6.15234C116.26-6.29883 106.104-16.5039 93.7012-16.5039C81.25-16.5039 71.0449-6.29883 71.0449 6.15234C71.0449 18.5547 81.25 28.7109 93.7012 28.7109ZM93.7012 26.0742C82.7148 26.0742 73.6816 17.0898 73.6816 6.15234C73.6816-4.83398 82.7148-13.8672 93.7012-13.8672C104.639-13.8672 113.623-4.83398 113.623 6.15234C113.623 17.0898 104.639 26.0742 93.7012 26.0742Z"/>
  </g>
  <g id="Black-M" transform="matrix(1 0 0 1 2872.36 1126)">
   <path d="M31.9824 18.3594L64.1113 18.3594C59.6191 13.4766 56.8359 7.08008 56.4941 0.0488281L34.9121 0.0488281C31.8359 0.0488281 30.7617-1.26953 30.7617-4.10156L30.7617-70.0195C30.7617-72.8516 31.8359-74.1699 34.9121-74.1699L81.9336-74.1699C85.0586-74.1699 86.1328-72.8516 86.1328-70.0195L86.1328-29.6387C93.1152-29.3945 99.5605-26.5625 104.395-22.1191L104.395-72.9492C104.395-85.2051 97.1191-92.4805 84.8633-92.4805L31.9824-92.4805C19.7266-92.4805 12.4512-85.2051 12.4512-72.9492L12.4512-1.17188C12.4512 11.084 19.7266 18.3594 31.9824 18.3594ZM43.8965-54.4922L73.0469-54.4922C75.0488-54.4922 76.5625-56.0547 76.5625-58.0566C76.5625-60.0098 75.0488-61.4746 73.0469-61.4746L43.8965-61.4746C41.7969-61.4746 40.332-60.0098 40.332-58.0566C40.332-56.0547 41.7969-54.4922 43.8965-54.4922ZM43.8965-39.5996L73.0469-39.5996C75.0488-39.5996 76.5625-41.1621 76.5625-43.1641C76.5625-45.0684 75.0488-46.582 73.0469-46.582L43.8965-46.582C41.7969-46.582 40.332-45.0684 40.332-43.1641C40.332-41.1621 41.7969-39.5996 43.8965-39.5996ZM85.2051 18.3594C87.9395 18.3594 90.625 17.7246 92.9688 16.6992L100.83 24.4629C102.148 25.7324 103.857 26.3672 105.615 26.3672C109.277 26.3672 112.109 23.5352 112.109 19.7754C112.109 18.0664 111.621 16.4551 110.254 15.0879L102.588 7.37305C103.809 4.88281 104.492 2.05078 104.492-0.927734C104.492-11.4258 95.8496-20.166 85.2051-20.166C74.707-20.166 65.9668-11.4258 65.9668-0.927734C65.9668 9.66797 74.707 18.3594 85.2051 18.3594ZM85.2051 8.78906C79.834 8.78906 75.4395 4.54102 75.4395-0.927734C75.4395-6.29883 79.834-10.5957 85.2051-10.5957C90.625-10.5957 94.9219-6.29883 94.9219-0.927734C94.9219 4.54102 90.625 8.78906 85.2051 8.78906Z"/>
  </g>
  <g id="Heavy-M" transform="matrix(1 0 0 1 2576.7 1126)">
   <path d="M30.957 17.627L61.8164 17.627C57.7637 13.3789 55.127 7.86133 54.4922 1.80664L33.3008 1.80664C29.7363 1.80664 28.2715 0.146484 28.2715-3.17383L28.2715-70.9473C28.2715-74.2676 29.7363-75.9277 33.3008-75.9277L81.25-75.9277C84.7656-75.9277 86.2793-74.2676 86.2793-70.9473L86.2793-30.0781C92.334-29.4434 97.8516-26.8066 102.1-22.8027L102.1-73.1934C102.1-85.0098 95.3613-91.748 83.5938-91.748L30.957-91.748C19.2383-91.748 12.4512-84.9609 12.4512-73.1934L12.4512-0.927734C12.4512 10.8398 19.2383 17.627 30.957 17.627ZM41.7969-56.2012L72.8516-56.2012C74.7559-56.2012 76.2207-57.7148 76.2207-59.6191C76.2207-61.4746 74.7559-62.9395 72.8516-62.9395L41.7969-62.9395C39.7949-62.9395 38.3301-61.4746 38.3301-59.6191C38.3301-57.7148 39.7949-56.2012 41.7969-56.2012ZM41.7969-40.7715L72.8516-40.7715C74.7559-40.7715 76.2207-42.2852 76.2207-44.1895C76.2207-46.0938 74.7559-47.5098 72.8516-47.5098L41.7969-47.5098C39.7949-47.5098 38.3301-46.0938 38.3301-44.1895C38.3301-42.2852 39.7949-40.7715 41.7969-40.7715ZM82.2266 17.627C85.4004 17.627 88.3789 16.8945 91.0645 15.5273L99.6094 24.0723C100.879 25.293 102.441 25.8789 104.053 25.8789C107.422 25.8789 110.01 23.291 110.01 19.8242C110.01 18.3105 109.473 16.7969 108.252 15.5273L99.8047 7.08008C101.27 4.29688 102.148 1.07422 102.148-2.29492C102.148-13.1836 93.2129-22.168 82.2266-22.168C71.3867-22.168 62.3535-13.1348 62.3535-2.29492C62.3535 8.64258 71.3867 17.627 82.2266 17.627ZM82.2266 8.64258C76.1719 8.64258 71.2402 3.85742 71.2402-2.29492C71.2402-8.30078 76.1719-13.2324 82.2266-13.2324C88.2812-13.2324 93.1641-8.30078 93.1641-2.29492C93.1641 3.85742 88.2812 8.64258 82.2266 8.64258Z"/>
  </g>
  <g id="Bold-M" transform="matrix(1 0 0 1 2281.19 1126)">
   <path d="M29.7852 16.7969L59.2285 16.7969C55.7129 13.2812 53.2227 8.74023 52.2461 3.75977L31.4453 3.75977C27.3926 3.75977 25.5371 1.75781 25.5371-2.09961L25.5371-71.9727C25.5371-75.8301 27.3926-77.8809 31.4453-77.8809L80.5176-77.8809C84.4727-77.8809 86.4258-75.8301 86.4258-71.9727L86.4258-30.5176C91.4062-29.541 95.9473-27.0508 99.5117-23.5352L99.5117-73.5352C99.5117-84.7656 93.3594-90.918 82.1777-90.918L29.7852-90.918C18.6523-90.918 12.4512-84.7168 12.4512-73.5352L12.4512-0.585938C12.4512 10.6445 18.6035 16.7969 29.7852 16.7969ZM39.4531-58.0566L72.5586-58.0566C74.4141-58.0566 75.8301-59.5215 75.8301-61.377C75.8301-63.1836 74.4141-64.5508 72.5586-64.5508L39.4531-64.5508C37.5488-64.5508 36.1328-63.1836 36.1328-61.377C36.1328-59.5215 37.5488-58.0566 39.4531-58.0566ZM39.4531-42.0898L72.5586-42.0898C74.4141-42.0898 75.8301-43.5547 75.8301-45.4102C75.8301-47.2168 74.4141-48.584 72.5586-48.584L39.4531-48.584C37.5488-48.584 36.1328-47.2168 36.1328-45.4102C36.1328-43.5547 37.5488-42.0898 39.4531-42.0898ZM78.9062 16.7969C82.5195 16.7969 85.8887 15.8691 88.8672 14.2578L98.2422 23.584C99.4629 24.8047 100.83 25.3418 102.393 25.3418C105.371 25.3418 107.617 23.0469 107.617 19.9219C107.617 18.5547 107.129 17.1875 106.006 16.0645L96.6309 6.68945C98.4863 3.61328 99.5117 0.0488281 99.5117-3.80859C99.5117-15.1367 90.2832-24.4141 78.9062-24.4141C67.627-24.4141 58.3008-15.0879 58.3008-3.80859C58.3008 7.56836 67.627 16.7969 78.9062 16.7969ZM78.9062 8.54492C72.1191 8.54492 66.5527 3.07617 66.5527-3.80859C66.5527-10.5469 72.1191-16.1133 78.9062-16.1133C85.6934-16.1133 91.2598-10.5469 91.2598-3.80859C91.2598 3.07617 85.7422 8.54492 78.9062 8.54492Z"/>
  </g>
  <g id="Semibold-M" transform="matrix(1 0 0 1 1985.28 1126)">
   <path d="M29.0039 16.2598L57.4707 16.2598C54.2969 13.2324 51.9043 9.32617 50.6836 5.07812L30.2246 5.07812C25.7812 5.07812 23.6328 2.88086 23.6328-1.36719L23.6328-72.7051C23.6328-76.9043 25.7812-79.1992 30.2246-79.1992L79.9805-79.1992C84.2773-79.1992 86.5234-76.9043 86.5234-72.7051L86.5234-30.8105C90.8203-29.6387 94.6777-27.2461 97.7051-24.0723L97.7051-73.7305C97.7051-84.5703 91.9434-90.3809 81.2012-90.3809L29.0039-90.3809C18.2617-90.3809 12.4512-84.5703 12.4512-73.7305L12.4512-0.390625C12.4512 10.4492 18.2129 16.2598 29.0039 16.2598ZM37.8418-59.375L72.3633-59.375C74.2188-59.375 75.5371-60.791 75.5371-62.5977C75.5371-64.3066 74.2188-65.6738 72.3633-65.6738L37.8418-65.6738C35.9863-65.6738 34.6191-64.3066 34.6191-62.5977C34.6191-60.791 35.9863-59.375 37.8418-59.375ZM37.8418-43.0176L72.3633-43.0176C74.2188-43.0176 75.5371-44.4336 75.5371-46.2402C75.5371-47.9492 74.2188-49.3164 72.3633-49.3164L37.8418-49.3164C35.9863-49.3164 34.6191-47.9492 34.6191-46.2402C34.6191-44.4336 35.9863-43.0176 37.8418-43.0176ZM76.6602 16.2598C80.5176 16.2598 84.1797 15.1855 87.3535 13.3301L97.2656 23.291C98.4863 24.4629 99.7559 24.9512 101.221 24.9512C103.955 24.9512 106.006 22.8516 106.006 19.9707C106.006 18.7012 105.469 17.4316 104.443 16.4551L94.4824 6.44531C96.5332 3.17383 97.7539-0.683594 97.7539-4.83398C97.7539-16.5039 88.2812-25.9766 76.6602-25.9766C65.0391-25.9766 55.5176-16.4062 55.5176-4.83398C55.5176 6.78711 65.0391 16.2598 76.6602 16.2598ZM76.6602 8.44727C69.2871 8.44727 63.3301 2.53906 63.3301-4.83398C63.3301-12.1094 69.2871-18.1152 76.6602-18.1152C83.9355-18.1152 89.8926-12.1094 89.8926-4.83398C89.8926 2.53906 83.9355 8.44727 76.6602 8.44727Z"/>
  </g>
  <g id="Medium-M" transform="matrix(1 0 0 1 1689.18 1126)">
   <path d="M28.3691 15.8203L56.1035 15.8203C53.1738 13.1348 50.8789 9.81445 49.5117 6.10352L29.248 6.10352C24.5605 6.10352 22.2168 3.71094 22.2168-0.78125L22.2168-73.2422C22.2168-77.6855 24.5605-80.2246 29.248-80.2246L79.5898-80.2246C84.1309-80.2246 86.6211-77.7344 86.6211-73.2422L86.6211-31.0547C90.332-29.6875 93.6523-27.3926 96.3379-24.4629L96.3379-73.877C96.3379-84.4727 90.918-89.9414 80.4199-89.9414L28.3691-89.9414C17.9199-89.9414 12.4512-84.4238 12.4512-73.877L12.4512-0.244141C12.4512 10.3516 17.9199 15.8203 28.3691 15.8203ZM36.6211-60.3516L72.2656-60.3516C74.0234-60.3516 75.3418-61.7188 75.3418-63.4766C75.3418-65.1855 74.0234-66.5527 72.2656-66.5527L36.6211-66.5527C34.8145-66.5527 33.4961-65.1855 33.4961-63.4766C33.4961-61.7188 34.8145-60.3516 36.6211-60.3516ZM36.6211-43.7012L72.2656-43.7012C74.0234-43.7012 75.3418-45.0684 75.3418-46.8262C75.3418-48.5352 74.0234-49.9023 72.2656-49.9023L36.6211-49.9023C34.8145-49.9023 33.4961-48.5352 33.4961-46.8262C33.4961-45.0684 34.8145-43.7012 36.6211-43.7012ZM74.9023 15.8203C79.0527 15.8203 82.9102 14.6484 86.1816 12.6465L96.582 23.0469C97.7539 24.2188 98.9258 24.6582 100.342 24.6582C102.832 24.6582 104.736 22.7051 104.736 20.0195C104.736 18.8477 104.199 17.627 103.271 16.6992L92.8223 6.20117C95.0684 2.83203 96.3867-1.26953 96.3867-5.61523C96.3867-17.4805 86.7676-27.0996 74.9023-27.0996C63.0859-27.0996 53.418-17.4316 53.418-5.61523C53.418 6.20117 63.0859 15.8203 74.9023 15.8203ZM74.9023 8.39844C67.1387 8.39844 60.8398 2.09961 60.8398-5.61523C60.8398-13.2812 67.1387-19.6289 74.9023-19.6289C82.5684-19.6289 88.8672-13.2812 88.8672-5.61523C88.8672 2.09961 82.6172 8.39844 74.9023 8.39844Z"/>
  </g>
  <g id="Regular-M" transform="matrix(1 0 0 1 1393.3 1126)">
   <path d="M27.5879 15.2832L54.3457 15.2832C51.8066 13.0859 49.6094 10.4004 47.998 7.42188L28.0273 7.42188C22.998 7.42188 20.3125 4.83398 20.3125-0.0488281L20.3125-73.9746C20.3125-78.7598 22.9492-81.543 28.0273-81.543L79.0527-81.543C83.9355-81.543 86.7188-78.8086 86.7188-73.9746L86.7188-31.3477C89.6973-29.7363 92.3828-27.5879 94.5801-25L94.5801-74.0723C94.5801-84.3262 89.5508-89.4043 79.4434-89.4043L27.5879-89.4043C17.5293-89.4043 12.4512-84.2773 12.4512-74.0723L12.4512-0.0488281C12.4512 10.2051 17.5293 15.2832 27.5879 15.2832ZM35.0586-61.6211L72.0703-61.6211C73.7793-61.6211 75.0977-62.9883 75.0977-64.6973C75.0977-66.3574 73.7793-67.627 72.0703-67.627L35.0586-67.627C33.252-67.627 31.9824-66.3574 31.9824-64.6973C31.9824-62.9883 33.252-61.6211 35.0586-61.6211ZM35.0586-44.6289L72.0703-44.6289C73.7793-44.6289 75.0977-45.9473 75.0977-47.6562C75.0977-49.3164 73.7793-50.6348 72.0703-50.6348L35.0586-50.6348C33.252-50.6348 31.9824-49.3164 31.9824-47.6562C31.9824-45.9473 33.252-44.6289 35.0586-44.6289ZM72.6562 15.2832C77.0508 15.2832 81.2012 13.9648 84.6191 11.7188L95.6055 22.7051C96.7773 23.877 97.8516 24.3164 99.1699 24.3164C101.416 24.3164 103.125 22.5586 103.125 20.0684C103.125 18.9941 102.588 17.9199 101.758 17.0898L90.625 5.9082C93.1152 2.34375 94.5801-1.95312 94.5801-6.64062C94.5801-18.8477 84.7656-28.6621 72.6562-28.6621C60.5469-28.6621 50.6348-18.75 50.6348-6.64062C50.6348 5.46875 60.5469 15.2832 72.6562 15.2832ZM72.6562 8.30078C64.3555 8.30078 57.6172 1.5625 57.6172-6.64062C57.6172-14.8438 64.3555-21.6309 72.6562-21.6309C80.8105-21.6309 87.5488-14.8438 87.5488-6.64062C87.5488 1.5625 80.8594 8.30078 72.6562 8.30078Z"/>
  </g>
  <g id="Light-M" transform="matrix(1 0 0 1 1097.35 1126)">
   <path d="M26.709 14.9902L56.4453 14.9902C54.3457 13.2812 52.5879 11.2305 51.1719 8.93555L27.0508 8.93555C21.4355 8.93555 18.5059 6.05469 18.5059 0.537109L18.5059-74.5605C18.5059-79.9316 21.4355-83.0078 27.0508-83.0078L78.6133-83.0078C84.1309-83.0078 87.1582-80.0781 87.1582-74.5605L87.1582-27.0508C89.4531-25.6836 91.5039-23.877 93.2129-21.8262L93.2129-74.6582C93.2129-84.2285 88.3789-89.0625 78.9551-89.0625L26.709-89.0625C17.334-89.0625 12.4512-84.1797 12.4512-74.6582L12.4512 0.585938C12.4512 10.1562 17.2852 14.9902 26.709 14.9902ZM33.6914-63.2812L72.0215-63.2812C73.3887-63.2812 74.4629-64.3555 74.4629-65.7227C74.4629-67.041 73.3887-68.0664 72.0215-68.0664L33.6914-68.0664C32.2754-68.0664 31.2012-67.041 31.2012-65.7227C31.2012-64.3555 32.2754-63.2812 33.6914-63.2812ZM33.6914-46.1426L72.0215-46.1426C73.3887-46.1426 74.4629-47.2168 74.4629-48.584C74.4629-49.9023 73.3887-50.9277 72.0215-50.9277L33.6914-50.9277C32.2754-50.9277 31.2012-49.9023 31.2012-48.584C31.2012-47.2168 32.2754-46.1426 33.6914-46.1426ZM72.6562 14.9902C77.002 14.9902 81.0547 13.623 84.375 11.2793L95.5566 22.5098C96.4844 23.4375 97.3633 23.8281 98.4375 23.8281C100.244 23.8281 101.611 22.4121 101.611 20.5078C101.611 19.5801 101.172 18.75 100.439 18.0664L89.1113 6.68945C91.6992 3.27148 93.2129-0.976562 93.2129-5.56641C93.2129-16.9434 83.9844-26.1719 72.6562-26.1719C61.3281-26.1719 52.002-16.8945 52.002-5.56641C52.002 5.76172 61.3281 14.9902 72.6562 14.9902ZM72.6562 9.52148C64.3066 9.52148 57.4707 2.73438 57.4707-5.56641C57.4707-13.8672 64.3066-20.7031 72.6562-20.7031C80.9082-20.7031 87.6953-13.8672 87.6953-5.56641C87.6953 2.73438 80.9082 9.52148 72.6562 9.52148Z"/>
  </g>
  <g id="Thin-M" transform="matrix(1 0 0 1 801.661 1126)">
   <path d="M25.5859 14.5996L59.1797 14.5996C57.7637 13.5254 56.4941 12.3535 55.4199 10.9863L25.7812 10.9863C19.3848 10.9863 16.1133 7.66602 16.1133 1.31836L16.1133-75.3418C16.1133-81.4453 19.3848-85.0098 25.7812-85.0098L78.0273-85.0098C84.375-85.0098 87.7441-81.6895 87.7441-75.3418L87.7441-21.3867C89.1113-20.2637 90.2832-18.9941 91.3574-17.627L91.3574-75.4395C91.3574-84.1309 86.8652-88.623 78.2227-88.623L25.5859-88.623C17.0898-88.623 12.4512-84.082 12.4512-75.4395L12.4512 1.41602C12.4512 10.0586 16.9922 14.5996 25.5859 14.5996ZM31.8848-65.4297L71.9727-65.4297C72.9004-65.4297 73.6328-66.1621 73.6328-67.041C73.6328-67.9199 72.9004-68.6523 71.9727-68.6523L31.8848-68.6523C30.9082-68.6523 30.2246-67.9199 30.2246-67.041C30.2246-66.1621 30.9082-65.4297 31.8848-65.4297ZM31.8848-48.1445L71.9727-48.1445C72.9004-48.1445 73.6328-48.877 73.6328-49.7559C73.6328-50.6836 72.9004-51.3672 71.9727-51.3672L31.8848-51.3672C30.9082-51.3672 30.2246-50.6836 30.2246-49.7559C30.2246-48.877 30.9082-48.1445 31.8848-48.1445ZM72.6074 14.5996C76.9043 14.5996 80.8594 13.1348 84.0332 10.7422L95.5078 22.2656C96.1426 22.9004 96.6797 23.1934 97.4609 23.1934C98.6816 23.1934 99.5605 22.2656 99.5605 21.0449C99.5605 20.3613 99.2676 19.873 98.7305 19.3359L87.1094 7.71484C89.7461 4.49219 91.3574 0.341797 91.3574-4.15039C91.3574-14.502 82.959-22.9492 72.6074-22.9492C62.3047-22.9492 53.8086-14.4531 53.8086-4.15039C53.8086 6.15234 62.3047 14.5996 72.6074 14.5996ZM72.6074 11.1328C64.1602 11.1328 57.2754 4.29688 57.2754-4.15039C57.2754-12.5488 64.1602-19.4824 72.6074-19.4824C81.0059-19.4824 87.8906-12.5488 87.8906-4.15039C87.8906 4.29688 81.0547 11.1328 72.6074 11.1328Z"/>
  </g>
  <g id="Ultralight-M" transform="matrix(1 0 0 1 505.463 1126)">
   <path d="M25 14.4043L60.5469 14.4043C59.5215 13.6719 58.4961 12.8906 57.5684 12.0117L25.1465 12.0117C18.3594 12.0117 14.8438 8.49609 14.8438 1.70898L14.8438-75.7324C14.8438-82.2754 18.3594-86.0352 25.1465-86.0352L77.7344-86.0352C84.5215-86.0352 88.0371-82.5195 88.0371-75.7324L88.0371-18.457C88.916-17.5293 89.6973-16.5039 90.4297-15.4297L90.4297-75.8789C90.4297-84.0332 86.084-88.4277 77.8809-88.4277L25-88.4277C16.9434-88.4277 12.4512-84.0332 12.4512-75.8789L12.4512 1.85547C12.4512 10.0586 16.7969 14.4043 25 14.4043ZM30.957-66.5039L71.9238-66.5039C72.6562-66.5039 73.1934-67.041 73.1934-67.7246C73.1934-68.4082 72.6562-68.9453 71.9238-68.9453L30.957-68.9453C30.2246-68.9453 29.6875-68.4082 29.6875-67.7246C29.6875-67.041 30.2246-66.5039 30.957-66.5039ZM30.957-49.1699L71.9238-49.1699C72.6562-49.1699 73.1934-49.707 73.1934-50.3906C73.1934-51.0742 72.6562-51.6113 71.9238-51.6113L30.957-51.6113C30.2246-51.6113 29.6875-51.0742 29.6875-50.3906C29.6875-49.707 30.2246-49.1699 30.957-49.1699ZM72.6074 14.4043C76.8555 14.4043 80.7617 12.8906 83.8379 10.4004L95.459 22.1191C95.9473 22.6074 96.3379 22.8516 96.9238 22.8516C97.9004 22.8516 98.5352 22.2168 98.5352 21.3379C98.5352 20.752 98.291 20.459 97.8516 20.0195L86.084 8.20312C88.7695 5.07812 90.4297 1.02539 90.4297-3.41797C90.4297-13.2324 82.4219-21.2891 72.6074-21.2891C62.793-21.2891 54.7363-13.2324 54.7363-3.41797C54.7363 6.39648 62.793 14.4043 72.6074 14.4043ZM72.6074 11.9629C64.1113 11.9629 57.1289 5.07812 57.1289-3.41797C57.1289-11.9141 64.1113-18.8965 72.6074-18.8965C81.1035-18.8965 87.9883-11.9141 87.9883-3.41797C87.9883 5.07812 81.1035 11.9629 72.6074 11.9629Z"/>
  </g>
  <g id="Black-S" transform="matrix(1 0 0 1 2885.65 696)">
   <path d="M25 6.68945L50 6.68945C46.5332 2.92969 44.3359-2.05078 44.043-7.4707L27.2461-7.4707C24.8047-7.4707 23.9258-8.54492 23.9258-10.791L23.9258-62.5488C23.9258-64.7949 24.8047-65.8691 27.2461-65.8691L64.1602-65.8691C66.6016-65.8691 67.4805-64.7949 67.4805-62.5488L67.4805-30.957C72.9004-30.7129 77.8809-28.5156 81.6406-25.0488L81.6406-64.7949C81.6406-74.3652 75.9766-80.0293 66.4062-80.0293L25-80.0293C15.4297-80.0293 9.76562-74.3652 9.76562-64.7949L9.76562-8.54492C9.76562 1.02539 15.4297 6.68945 25 6.68945ZM34.2285-50.4395L57.2266-50.4395C58.7891-50.4395 59.9609-51.6602 59.9609-53.2227C59.9609-54.7363 58.7891-55.9082 57.2266-55.9082L34.2285-55.9082C32.6172-55.9082 31.4453-54.7363 31.4453-53.2227C31.4453-51.6602 32.6172-50.4395 34.2285-50.4395ZM34.2285-38.7207L57.2266-38.7207C58.7891-38.7207 59.9609-39.9414 59.9609-41.5039C59.9609-43.0176 58.7891-44.1895 57.2266-44.1895L34.2285-44.1895C32.6172-44.1895 31.4453-43.0176 31.4453-41.5039C31.4453-39.9414 32.6172-38.7207 34.2285-38.7207ZM66.5039 6.68945C68.7012 6.68945 70.8008 6.20117 72.7051 5.37109L78.9062 11.5234C79.9316 12.5 81.25 12.9883 82.6172 12.9883C85.498 12.9883 87.6953 10.791 87.6953 7.86133C87.6953 6.54297 87.3047 5.27344 86.2305 4.19922L80.1758-1.85547C81.1523-3.85742 81.6895-6.10352 81.6895-8.49609C81.6895-16.748 74.9023-23.6328 66.5039-23.6328C58.252-23.6328 51.3672-16.748 51.3672-8.49609C51.3672-0.146484 58.252 6.68945 66.5039 6.68945ZM66.5039-0.78125C62.2559-0.78125 58.7891-4.15039 58.7891-8.49609C58.7891-12.7441 62.2559-16.1621 66.5039-16.1621C70.8008-16.1621 74.2188-12.7441 74.2188-8.49609C74.2188-4.15039 70.8008-0.78125 66.5039-0.78125Z"/>
  </g>
  <g id="Heavy-S" transform="matrix(1 0 0 1 2589.67 696)">
   <path d="M24.3164 6.15234L47.998 6.15234C44.8242 2.83203 42.7246-1.51367 42.1387-6.29883L26.123-6.29883C23.3887-6.29883 22.2656-7.56836 22.2656-10.1074L22.2656-63.1836C22.2656-65.7227 23.3887-67.041 26.123-67.041L63.6719-67.041C66.3574-67.041 67.5293-65.7227 67.5293-63.1836L67.5293-31.7383C72.3145-31.25 76.6602-29.1016 80.0293-25.9277L80.0293-64.9414C80.0293-74.2188 74.7559-79.4922 65.4785-79.4922L24.3164-79.4922C15.0391-79.4922 9.76562-74.2188 9.76562-64.9414L9.76562-8.39844C9.76562 0.878906 15.0391 6.15234 24.3164 6.15234ZM32.7637-51.5625L57.0312-51.5625C58.5938-51.5625 59.7656-52.7344 59.7656-54.2969C59.7656-55.8105 58.5938-56.9824 57.0312-56.9824L32.7637-56.9824C31.2012-56.9824 30.0293-55.8105 30.0293-54.2969C30.0293-52.7344 31.2012-51.5625 32.7637-51.5625ZM32.7637-39.4531L57.0312-39.4531C58.5938-39.4531 59.7656-40.6738 59.7656-42.2363C59.7656-43.7012 58.5938-44.873 57.0312-44.873L32.7637-44.873C31.2012-44.873 30.0293-43.7012 30.0293-42.2363C30.0293-40.6738 31.2012-39.4531 32.7637-39.4531ZM64.2578 6.15234C66.748 6.15234 69.1406 5.56641 71.2402 4.54102L77.9785 11.2305C79.0039 12.207 80.2246 12.6953 81.543 12.6953C84.2285 12.6953 86.2305 10.6445 86.2305 7.86133C86.2305 6.64062 85.8398 5.41992 84.8633 4.44336L78.1738-2.19727C79.3945-4.44336 80.0781-6.93359 80.0781-9.66797C80.0781-18.3105 72.998-25.4395 64.2578-25.4395C55.6152-25.4395 48.4375-18.2617 48.4375-9.66797C48.4375-0.927734 55.6152 6.15234 64.2578 6.15234ZM64.2578-1.02539C59.4727-1.02539 55.6152-4.83398 55.6152-9.66797C55.6152-14.4043 59.4727-18.2617 64.2578-18.2617C68.9941-18.2617 72.8516-14.4043 72.8516-9.66797C72.8516-4.83398 69.043-1.02539 64.2578-1.02539Z"/>
  </g>
  <g id="Bold-S" transform="matrix(1 0 0 1 2293.76 696)">
   <path d="M23.5352 5.61523L45.8008 5.61523C42.9199 2.73438 40.8691-0.976562 40.0391-5.0293L24.8047-5.0293C21.7773-5.0293 20.3613-6.49414 20.3613-9.375L20.3613-63.916C20.3613-66.7969 21.7773-68.3105 24.8047-68.3105L63.1348-68.3105C66.1133-68.3105 67.627-66.7969 67.627-63.916L67.627-32.6172C71.6797-31.8359 75.3418-29.7852 78.2227-26.9043L78.2227-65.0879C78.2227-74.0234 73.3398-78.9062 64.4531-78.9062L23.5352-78.9062C14.6484-78.9062 9.76562-74.0234 9.76562-65.0879L9.76562-8.25195C9.76562 0.683594 14.6484 5.61523 23.5352 5.61523ZM31.1523-52.7832L56.8359-52.7832C58.3984-52.7832 59.5703-54.0039 59.5703-55.5176C59.5703-57.0312 58.3984-58.1543 56.8359-58.1543L31.1523-58.1543C29.5898-58.1543 28.418-57.0312 28.418-55.5176C28.418-54.0039 29.5898-52.7832 31.1523-52.7832ZM31.1523-40.2832L56.8359-40.2832C58.3984-40.2832 59.5703-41.5039 59.5703-43.0176C59.5703-44.4824 58.3984-45.6543 56.8359-45.6543L31.1523-45.6543C29.5898-45.6543 28.418-44.4824 28.418-43.0176C28.418-41.5039 29.5898-40.2832 31.1523-40.2832ZM61.7188 5.61523C64.5508 5.61523 67.2363 4.88281 69.5801 3.56445L76.9043 10.8887C77.9297 11.8652 79.1016 12.3047 80.3223 12.3047C82.7637 12.3047 84.6191 10.4492 84.6191 7.86133C84.6191 6.73828 84.1797 5.61523 83.3008 4.73633L75.9766-2.58789C77.3926-5.0293 78.2227-7.91016 78.2227-10.9375C78.2227-20.0195 70.8496-27.4414 61.7188-27.4414C52.6855-27.4414 45.2148-19.9707 45.2148-10.9375C45.2148-1.85547 52.6855 5.61523 61.7188 5.61523ZM61.7188-1.26953C56.3477-1.26953 52.002-5.56641 52.002-10.9375C52.002-16.2109 56.3477-20.6055 61.7188-20.6055C67.041-20.6055 71.3867-16.2109 71.3867-10.9375C71.3867-5.56641 67.041-1.26953 61.7188-1.26953Z"/>
  </g>
  <g id="Semibold-S" transform="matrix(1 0 0 1 1997.61 696)">
   <path d="M22.998 5.17578L44.2383 5.17578C41.6016 2.63672 39.5996-0.585938 38.5742-4.10156L23.9258-4.10156C20.7031-4.10156 19.0918-5.76172 19.0918-8.88672L19.0918-64.4043C19.0918-67.5293 20.6543-69.2383 23.9258-69.2383L62.793-69.2383C65.9668-69.2383 67.6758-67.5293 67.6758-64.4043L67.6758-33.252C71.1914-32.2266 74.4141-30.2246 76.9531-27.5879L76.9531-65.1855C76.9531-73.9258 72.4121-78.5156 63.7695-78.5156L22.998-78.5156C14.3555-78.5156 9.76562-73.877 9.76562-65.1855L9.76562-8.1543C9.76562 0.585938 14.3555 5.17578 22.998 5.17578ZM30.0781-53.6621L56.7383-53.6621C58.252-53.6621 59.375-54.834 59.375-56.3477C59.375-57.8613 58.252-58.9844 56.7383-58.9844L30.0781-58.9844C28.4668-58.9844 27.3438-57.8613 27.3438-56.3477C27.3438-54.834 28.4668-53.6621 30.0781-53.6621ZM30.0781-40.8691L56.7383-40.8691C58.252-40.8691 59.375-42.041 59.375-43.5547C59.375-45.0195 58.252-46.1914 56.7383-46.1914L30.0781-46.1914C28.4668-46.1914 27.3438-45.0195 27.3438-43.5547C27.3438-42.041 28.4668-40.8691 30.0781-40.8691ZM59.9609 5.17578C63.0371 5.17578 65.9668 4.3457 68.457 2.92969L76.2207 10.6934C77.1973 11.6699 78.3203 12.0605 79.4922 12.0605C81.7871 12.0605 83.4961 10.3027 83.4961 7.86133C83.4961 6.83594 83.0566 5.76172 82.2266 4.93164L74.4141-2.88086C76.0254-5.46875 77.002-8.54492 77.002-11.8164C77.002-21.1914 69.3359-28.8574 59.9609-28.8574C50.6348-28.8574 42.9688-21.1426 42.9688-11.8164C42.9688-2.44141 50.6348 5.17578 59.9609 5.17578ZM59.9609-1.41602C54.1992-1.41602 49.5605-6.05469 49.5605-11.8164C49.5605-17.4805 54.1992-22.2168 59.9609-22.2168C65.6738-22.2168 70.3613-17.4805 70.3613-11.8164C70.3613-6.05469 65.6738-1.41602 59.9609-1.41602Z"/>
  </g>
  <g id="Medium-S" transform="matrix(1 0 0 1 1701.32 696)">
   <path d="M22.5586 4.88281L43.1152 4.88281C40.625 2.58789 38.6719-0.244141 37.5-3.41797L23.291-3.41797C19.8242-3.41797 18.0664-5.17578 18.0664-8.49609L18.0664-64.7949C18.0664-68.0664 19.8242-69.9219 23.291-69.9219L62.5-69.9219C65.8203-69.9219 67.6758-68.0664 67.6758-64.7949L67.6758-33.6914C70.8496-32.5195 73.7305-30.5664 76.0254-28.0762L76.0254-65.2832C76.0254-73.8281 71.6797-78.2227 63.2324-78.2227L22.5586-78.2227C14.1113-78.2227 9.76562-73.7793 9.76562-65.2832L9.76562-8.05664C9.76562 0.488281 14.1113 4.88281 22.5586 4.88281ZM29.1992-54.2969L56.6406-54.2969C58.1543-54.2969 59.2773-55.4688 59.2773-56.9824C59.2773-58.4473 58.1543-59.6191 56.6406-59.6191L29.1992-59.6191C27.6367-59.6191 26.5137-58.4473 26.5137-56.9824C26.5137-55.4688 27.6367-54.2969 29.1992-54.2969ZM29.1992-41.2598L56.6406-41.2598C58.1543-41.2598 59.2773-42.4805 59.2773-43.9941C59.2773-45.459 58.1543-46.582 56.6406-46.582L29.1992-46.582C27.6367-46.582 26.5137-45.459 26.5137-43.9941C26.5137-42.4805 27.6367-41.2598 29.1992-41.2598ZM58.6426 4.88281C61.9141 4.88281 64.9414 4.00391 67.5781 2.44141L75.6348 10.498C76.6602 11.4746 77.6855 11.8652 78.8574 11.8652C81.0059 11.8652 82.666 10.2051 82.666 7.86133C82.666 6.88477 82.1777 5.85938 81.3965 5.07812L73.2422-3.07617C75-5.81055 76.0254-9.0332 76.0254-12.5C76.0254-22.1191 68.2129-29.8828 58.6426-29.8828C49.1211-29.8828 41.2598-22.0215 41.2598-12.5C41.2598-2.92969 49.1211 4.88281 58.6426 4.88281ZM58.6426-1.5625C52.5879-1.5625 47.6562-6.44531 47.6562-12.5C47.6562-18.457 52.5879-23.4375 58.6426-23.4375C64.5996-23.4375 69.5312-18.457 69.5312-12.5C69.5312-6.44531 64.6484-1.5625 58.6426-1.5625Z"/>
  </g>
  <g id="Regular-S" transform="matrix(1 0 0 1 1405.17 696)">
   <path d="M22.0215 4.49219L41.6016 4.49219C39.3066 2.53906 37.4023 0.146484 36.0352-2.53906L22.4121-2.53906C18.75-2.53906 16.7969-4.44336 16.7969-7.95898L16.7969-65.2832C16.7969-68.7988 18.7012-70.8008 22.4121-70.8008L62.1582-70.8008C65.6738-70.8008 67.7246-68.7988 67.7246-65.2832L67.7246-34.2773C70.4102-32.9102 72.8027-31.0059 74.8047-28.7598L74.8047-65.3809C74.8047-73.7305 70.7031-77.832 62.5-77.832L22.0215-77.832C13.8184-77.832 9.76562-73.6816 9.76562-65.3809L9.76562-7.95898C9.76562 0.390625 13.8184 4.49219 22.0215 4.49219ZM28.125-55.127L56.4941-55.127C58.0078-55.127 59.1309-56.2988 59.1309-57.8125C59.1309-59.2773 58.0078-60.4004 56.4941-60.4004L28.125-60.4004C26.5625-60.4004 25.4395-59.2773 25.4395-57.8125C25.4395-56.2988 26.5625-55.127 28.125-55.127ZM28.125-41.8457L56.4941-41.8457C58.0078-41.8457 59.1309-43.0176 59.1309-44.5312C59.1309-45.9961 58.0078-47.1191 56.4941-47.1191L28.125-47.1191C26.5625-47.1191 25.4395-45.9961 25.4395-44.5312C25.4395-43.0176 26.5625-41.8457 28.125-41.8457ZM56.9336 4.49219C60.4004 4.49219 63.6719 3.4668 66.4062 1.75781L74.9512 10.2539C75.9277 11.2793 76.9043 11.6211 78.0762 11.6211C80.0293 11.6211 81.543 10.1074 81.543 7.86133C81.543 6.98242 81.0547 6.00586 80.3711 5.27344L71.7285-3.36914C73.6328-6.20117 74.8047-9.66797 74.8047-13.3789C74.8047-23.291 66.7969-31.25 56.9336-31.25C47.0703-31.25 39.0137-23.1934 39.0137-13.3789C39.0137-3.51562 47.0703 4.49219 56.9336 4.49219ZM56.9336-1.70898C50.4883-1.70898 45.2148-6.93359 45.2148-13.3789C45.2148-19.7266 50.4883-25 56.9336-25C63.2324-25 68.5059-19.7266 68.5059-13.3789C68.5059-6.93359 63.2812-1.70898 56.9336-1.70898Z"/>
  </g>
  <g id="Light-S" transform="matrix(1 0 0 1 1109.14 696)">
   <path d="M21.2891 4.24805L43.4082 4.24805C41.6016 2.68555 40.0391 0.878906 38.8672-1.2207L21.582-1.2207C17.3828-1.2207 15.1855-3.36914 15.1855-7.42188L15.1855-65.8203C15.1855-69.8242 17.3828-72.1191 21.582-72.1191L61.7676-72.1191C65.8203-72.1191 68.1152-69.873 68.1152-65.8203L68.1152-30.4688C70.166-29.2969 72.0215-27.7344 73.5352-25.9277L73.5352-65.918C73.5352-73.6328 69.6777-77.5391 62.0605-77.5391L21.2891-77.5391C13.6719-77.5391 9.76562-73.6328 9.76562-65.918L9.76562-7.42188C9.76562 0.341797 13.623 4.24805 21.2891 4.24805ZM26.9043-56.5918L56.4453-56.5918C57.666-56.5918 58.5938-57.5195 58.5938-58.7402C58.5938-59.8633 57.666-60.791 56.4453-60.791L26.9043-60.791C25.6348-60.791 24.7559-59.8633 24.7559-58.7402C24.7559-57.5195 25.6348-56.5918 26.9043-56.5918ZM26.9043-43.1641L56.4453-43.1641C57.666-43.1641 58.5938-44.1406 58.5938-45.3125C58.5938-46.4844 57.666-47.4121 56.4453-47.4121L26.9043-47.4121C25.6348-47.4121 24.7559-46.4844 24.7559-45.3125C24.7559-44.1406 25.6348-43.1641 26.9043-43.1641ZM56.9336 4.24805C60.3516 4.24805 63.5742 3.17383 66.2109 1.36719L74.9023 10.1074C75.6836 10.8887 76.4648 11.2305 77.3926 11.2305C79.0039 11.2305 80.1758 10.0098 80.1758 8.25195C80.1758 7.4707 79.7852 6.73828 79.1992 6.15234L70.4102-2.68555C72.3633-5.41992 73.5352-8.78906 73.5352-12.4023C73.5352-21.6309 66.0645-29.1016 56.9336-29.1016C47.7539-29.1016 40.2344-21.582 40.2344-12.4023C40.2344-3.22266 47.7539 4.24805 56.9336 4.24805ZM56.9336-0.634766C50.3906-0.634766 45.0684-5.9082 45.0684-12.4023C45.0684-18.8477 50.3906-24.2188 56.9336-24.2188C63.3301-24.2188 68.6523-18.8477 68.6523-12.4023C68.6523-5.9082 63.3789-0.634766 56.9336-0.634766Z"/>
  </g>
  <g id="Thin-S" transform="matrix(1 0 0 1 813.331 696)">
   <path d="M20.2637 3.90625L45.8496 3.90625C44.6289 2.92969 43.5059 1.80664 42.627 0.585938L20.459 0.585938C15.5762 0.585938 13.0859-1.95312 13.0859-6.73828L13.0859-66.5039C13.0859-71.1426 15.5762-73.8281 20.459-73.8281L61.2793-73.8281C66.0645-73.8281 68.6035-71.2891 68.6035-66.5039L68.6035-25.4395C69.873-24.5605 70.9961-23.4375 71.9238-22.2168L71.9238-66.6016C71.9238-73.5352 68.3594-77.1484 61.4258-77.1484L20.2637-77.1484C13.4277-77.1484 9.76562-73.5352 9.76562-66.6016L9.76562-6.68945C9.76562 0.292969 13.3789 3.90625 20.2637 3.90625ZM25.3418-58.4473L56.3965-58.4473C57.2266-58.4473 57.8613-59.082 57.8613-59.9121C57.8613-60.6934 57.2266-61.2793 56.3965-61.2793L25.3418-61.2793C24.4629-61.2793 23.877-60.6934 23.877-59.9121C23.877-59.082 24.4629-58.4473 25.3418-58.4473ZM25.3418-44.9707L56.3965-44.9707C57.2266-44.9707 57.8613-45.6055 57.8613-46.3867C57.8613-47.168 57.2266-47.8027 56.3965-47.8027L25.3418-47.8027C24.4629-47.8027 23.877-47.168 23.877-46.3867C23.877-45.6055 24.4629-44.9707 25.3418-44.9707ZM56.8848 3.90625C60.2539 3.90625 63.3789 2.7832 65.8691 0.878906L74.8535 9.86328C75.3906 10.4004 75.8789 10.6445 76.5137 10.6445C77.6367 10.6445 78.3691 9.86328 78.3691 8.74023C78.3691 8.1543 78.125 7.71484 77.6855 7.27539L68.6523-1.80664C70.7031-4.3457 71.9238-7.61719 71.9238-11.1328C71.9238-19.4336 65.1855-26.2207 56.8848-26.2207C48.6328-26.2207 41.7969-19.4336 41.7969-11.1328C41.7969-2.88086 48.6328 3.90625 56.8848 3.90625ZM56.8848 0.78125C50.293 0.78125 44.9219-4.58984 44.9219-11.1328C44.9219-17.7246 50.293-23.1445 56.8848-23.1445C63.4277-23.1445 68.8477-17.7246 68.8477-11.1328C68.8477-4.58984 63.4766 0.78125 56.8848 0.78125Z"/>
  </g>
  <g id="Ultralight-S" transform="matrix(1 0 0 1 517.084 696)">
   <path d="M19.7266 3.71094L47.0703 3.71094C46.1914 3.02734 45.3125 2.34375 44.5312 1.51367L19.873 1.51367C14.6484 1.51367 11.9629-1.17188 11.9629-6.39648L11.9629-66.8457C11.9629-71.875 14.6484-74.7559 19.873-74.7559L60.9863-74.7559C66.1621-74.7559 68.8965-72.0703 68.8965-66.8457L68.8965-22.8516C69.7266-22.0703 70.459-21.1914 71.0938-20.3125L71.0938-66.9434C71.0938-73.4863 67.627-76.9531 61.084-76.9531L19.7266-76.9531C13.3301-76.9531 9.76562-73.4863 9.76562-66.9434L9.76562-6.29883C9.76562 0.244141 13.2324 3.71094 19.7266 3.71094ZM24.5117-59.4238L56.3477-59.4238C56.9824-59.4238 57.4707-59.9121 57.4707-60.498C57.4707-61.084 56.9824-61.5723 56.3477-61.5723L24.5117-61.5723C23.877-61.5723 23.3887-61.084 23.3887-60.498C23.3887-59.9121 23.877-59.4238 24.5117-59.4238ZM24.5117-45.8984L56.3477-45.8984C56.9824-45.8984 57.4707-46.3379 57.4707-46.9238C57.4707-47.5098 56.9824-47.998 56.3477-47.998L24.5117-47.998C23.877-47.998 23.3887-47.5098 23.3887-46.9238C23.3887-46.3379 23.877-45.8984 24.5117-45.8984ZM56.8848 3.71094C60.2051 3.71094 63.2812 2.53906 65.7227 0.585938L74.8047 9.76562C75.2441 10.1562 75.5371 10.3516 76.0742 10.3516C76.9043 10.3516 77.4414 9.76562 77.4414 9.0332C77.4414 8.49609 77.2461 8.25195 76.9043 7.86133L67.7246-1.31836C69.8242-3.80859 71.0938-7.03125 71.0938-10.498C71.0938-18.3105 64.6973-24.7559 56.8848-24.7559C49.0723-24.7559 42.627-18.3105 42.627-10.498C42.627-2.68555 49.0723 3.71094 56.8848 3.71094ZM56.8848 1.5625C50.2441 1.5625 44.7754-3.85742 44.7754-10.498C44.7754-17.1387 50.2441-22.6074 56.8848-22.6074C63.5254-22.6074 68.9453-17.1387 68.9453-10.498C68.9453-3.85742 63.5254 1.5625 56.8848 1.5625Z"/>
  </g>
 </g>
</svg>
