<?xml version="1.0" encoding="UTF-8"?>
<!--Generator: Apple Native CoreSVG 149-->
<!DOCTYPE svg
PUBLIC "-//W3C//DTD SVG 1.1//EN"
       "http://www.w3.org/Graphics/SVG/1.1/DTD/svg11.dtd">
<svg version="1.1" xmlns="http://www.w3.org/2000/svg" xmlns:xlink="http://www.w3.org/1999/xlink" width="3300" height="2200">
 <!--glyph: "uni10039E.medium", point size: 100.000000, font version: "Version 16.0d18e1", template writer version: "8"-->
 <g id="Notes">
  <rect height="2200" id="artboard" style="fill:white;opacity:1" width="3300" x="0" y="0"/>
  <line id="" style="fill:none;stroke:black;opacity:1;stroke-width:0.5;" x1="263" x2="3036" y1="292" y2="292"/>
  <text style="stroke:none;fill:black;font-family:-apple-system,&quot;SF Pro Display&quot;,&quot;SF Pro Text&quot;,Helvetica,sans-serif;font-weight:bold;" transform="matrix(1 0 0 1 263 322)">Weight/Scale Variations</text>
  <text style="stroke:none;fill:black;font-family:-apple-system,&quot;SF Pro Display&quot;,&quot;SF Pro Text&quot;,Helvetica,sans-serif;text-anchor:middle;" transform="matrix(1 0 0 1 559.711 322)">Ultralight</text>
  <text style="stroke:none;fill:black;font-family:-apple-system,&quot;SF Pro Display&quot;,&quot;SF Pro Text&quot;,Helvetica,sans-serif;text-anchor:middle;" transform="matrix(1 0 0 1 856.422 322)">Thin</text>
  <text style="stroke:none;fill:black;font-family:-apple-system,&quot;SF Pro Display&quot;,&quot;SF Pro Text&quot;,Helvetica,sans-serif;text-anchor:middle;" transform="matrix(1 0 0 1 1153.13 322)">Light</text>
  <text style="stroke:none;fill:black;font-family:-apple-system,&quot;SF Pro Display&quot;,&quot;SF Pro Text&quot;,Helvetica,sans-serif;text-anchor:middle;" transform="matrix(1 0 0 1 1449.84 322)">Regular</text>
  <text style="stroke:none;fill:black;font-family:-apple-system,&quot;SF Pro Display&quot;,&quot;SF Pro Text&quot;,Helvetica,sans-serif;text-anchor:middle;" transform="matrix(1 0 0 1 1746.56 322)">Medium</text>
  <text style="stroke:none;fill:black;font-family:-apple-system,&quot;SF Pro Display&quot;,&quot;SF Pro Text&quot;,Helvetica,sans-serif;text-anchor:middle;" transform="matrix(1 0 0 1 2043.27 322)">Semibold</text>
  <text style="stroke:none;fill:black;font-family:-apple-system,&quot;SF Pro Display&quot;,&quot;SF Pro Text&quot;,Helvetica,sans-serif;text-anchor:middle;" transform="matrix(1 0 0 1 2339.98 322)">Bold</text>
  <text style="stroke:none;fill:black;font-family:-apple-system,&quot;SF Pro Display&quot;,&quot;SF Pro Text&quot;,Helvetica,sans-serif;text-anchor:middle;" transform="matrix(1 0 0 1 2636.69 322)">Heavy</text>
  <text style="stroke:none;fill:black;font-family:-apple-system,&quot;SF Pro Display&quot;,&quot;SF Pro Text&quot;,Helvetica,sans-serif;text-anchor:middle;" transform="matrix(1 0 0 1 2933.4 322)">Black</text>
  <line id="" style="fill:none;stroke:black;opacity:1;stroke-width:0.5;" x1="263" x2="3036" y1="1903" y2="1903"/>
  <g id="" transform="matrix(1 0 0 1 263 1933)">
   <path d="M9.24805 0.830078C13.5547 0.830078 17.1387-2.74414 17.1387-7.05078C17.1387-11.3574 13.5449-14.9316 9.23828-14.9316C4.94141-14.9316 1.36719-11.3574 1.36719-7.05078C1.36719-2.74414 4.95117 0.830078 9.24805 0.830078ZM9.24805-0.654297C5.70312-0.654297 2.87109-3.49609 2.87109-7.05078C2.87109-10.6055 5.69336-13.4473 9.23828-13.4473C12.793-13.4473 15.6348-10.6055 15.6445-7.05078C15.6543-3.49609 12.8027-0.654297 9.24805-0.654297ZM6.39648-6.31836L8.50586-6.31836L8.50586-4.19922C8.50586-3.75977 8.79883-3.45703 9.22852-3.45703C9.67773-3.45703 9.9707-3.75977 9.9707-4.19922L9.9707-6.31836L12.0996-6.31836C12.5391-6.31836 12.8418-6.61133 12.8418-7.04102C12.8418-7.48047 12.5391-7.7832 12.0996-7.7832L9.9707-7.7832L9.9707-9.89258C9.9707-10.3418 9.67773-10.6445 9.22852-10.6445C8.79883-10.6445 8.50586-10.3418 8.50586-9.89258L8.50586-7.7832L6.39648-7.7832C5.94727-7.7832 5.64453-7.48047 5.64453-7.04102C5.64453-6.61133 5.94727-6.31836 6.39648-6.31836Z"/>
  </g>
  <g id="" transform="matrix(1 0 0 1 281.506 1933)">
   <path d="M11.709 2.91016C17.1582 2.91016 21.6699-1.61133 21.6699-7.05078C21.6699-12.5 17.1484-17.0117 11.6992-17.0117C6.25977-17.0117 1.74805-12.5 1.74805-7.05078C1.74805-1.61133 6.26953 2.91016 11.709 2.91016ZM11.709 1.25C7.09961 1.25 3.41797-2.44141 3.41797-7.05078C3.41797-11.6602 7.08984-15.3516 11.6992-15.3516C16.3086-15.3516 20-11.6602 20.0098-7.05078C20.0195-2.44141 16.3184 1.25 11.709 1.25ZM7.98828-6.23047L10.8789-6.23047L10.8789-3.32031C10.8789-2.83203 11.2109-2.5 11.6895-2.5C12.1777-2.5 12.5195-2.83203 12.5195-3.32031L12.5195-6.23047L15.4297-6.23047C15.918-6.23047 16.25-6.5625 16.25-7.04102C16.25-7.5293 15.918-7.87109 15.4297-7.87109L12.5195-7.87109L12.5195-10.7617C12.5195-11.2695 12.1777-11.6016 11.6895-11.6016C11.2109-11.6016 10.8789-11.2598 10.8789-10.7617L10.8789-7.87109L7.98828-7.87109C7.48047-7.87109 7.14844-7.5293 7.14844-7.04102C7.14844-6.5625 7.49023-6.23047 7.98828-6.23047Z"/>
  </g>
  <g id="" transform="matrix(1 0 0 1 304.924 1933)">
   <path d="M14.9707 5.66406C21.9336 5.66406 27.6953-0.0976562 27.6953-7.05078C27.6953-14.0137 21.9238-19.7754 14.9609-19.7754C8.00781-19.7754 2.25586-14.0137 2.25586-7.05078C2.25586-0.0976562 8.01758 5.66406 14.9707 5.66406ZM14.9707 3.84766C8.93555 3.84766 4.08203-1.01562 4.08203-7.05078C4.08203-13.0957 8.92578-17.9492 14.9609-17.9492C21.0059-17.9492 25.8594-13.0957 25.8691-7.05078C25.8789-1.01562 21.0156 3.84766 14.9707 3.84766ZM10.0586-6.14258L14.0625-6.14258L14.0625-2.12891C14.0625-1.5918 14.4336-1.2207 14.9512-1.2207C15.4883-1.2207 15.8594-1.5918 15.8594-2.12891L15.8594-6.14258L19.8828-6.14258C20.4102-6.14258 20.791-6.51367 20.791-7.03125C20.791-7.56836 20.4199-7.94922 19.8828-7.94922L15.8594-7.94922L15.8594-11.9531C15.8594-12.5098 15.4883-12.8809 14.9512-12.8809C14.4336-12.8809 14.0625-12.5 14.0625-11.9531L14.0625-7.94922L10.0586-7.94922C9.50195-7.94922 9.13086-7.56836 9.13086-7.03125C9.13086-6.51367 9.51172-6.14258 10.0586-6.14258Z"/>
  </g>
  <text style="stroke:none;fill:black;font-family:-apple-system,&quot;SF Pro Display&quot;,&quot;SF Pro Text&quot;,Helvetica,sans-serif;font-weight:bold;" transform="matrix(1 0 0 1 263 1953)">Design Variations</text>
  <text style="stroke:none;fill:black;font-family:-apple-system,&quot;SF Pro Display&quot;,&quot;SF Pro Text&quot;,Helvetica,sans-serif;" transform="matrix(1 0 0 1 263 1971)">Symbols are supported in up to nine weights and three scales.</text>
  <text style="stroke:none;fill:black;font-family:-apple-system,&quot;SF Pro Display&quot;,&quot;SF Pro Text&quot;,Helvetica,sans-serif;" transform="matrix(1 0 0 1 263 1989)">For optimal layout with text and other symbols, vertically align</text>
  <text style="stroke:none;fill:black;font-family:-apple-system,&quot;SF Pro Display&quot;,&quot;SF Pro Text&quot;,Helvetica,sans-serif;" transform="matrix(1 0 0 1 263 2007)">symbols with the adjacent text.</text>
  <line id="" style="fill:none;stroke:#00AEEF;stroke-width:0.5;opacity:1.0;" x1="776" x2="776" y1="1919" y2="1933"/>
  <g id="" transform="matrix(1 0 0 1 776 1933)">
   <path d="M3.31055 0.126953C3.82812 0.126953 4.08203-0.0683594 4.26758-0.605469L5.52734-4.0625L11.2891-4.0625L12.5488-0.605469C12.7344-0.0683594 12.9883 0.126953 13.4961 0.126953C14.0137 0.126953 14.3457-0.185547 14.3457-0.673828C14.3457-0.839844 14.3164-0.986328 14.2383-1.20117L9.6582-13.3887C9.43359-13.9941 9.0332-14.2871 8.4082-14.2871C7.80273-14.2871 7.39258-13.9941 7.17773-13.3984L2.59766-1.19141C2.51953-0.976562 2.49023-0.830078 2.49023-0.664062C2.49023-0.175781 2.80273 0.126953 3.31055 0.126953ZM6.00586-5.53711L8.37891-12.1094L8.42773-12.1094L10.8008-5.53711Z"/>
  </g>
  <line id="" style="fill:none;stroke:#00AEEF;stroke-width:0.5;opacity:1.0;" x1="792.836" x2="792.836" y1="1919" y2="1933"/>
  <text style="stroke:none;fill:black;font-family:-apple-system,&quot;SF Pro Display&quot;,&quot;SF Pro Text&quot;,Helvetica,sans-serif;font-weight:bold;" transform="matrix(1 0 0 1 776 1953)">Margins</text>
  <text style="stroke:none;fill:black;font-family:-apple-system,&quot;SF Pro Display&quot;,&quot;SF Pro Text&quot;,Helvetica,sans-serif;" transform="matrix(1 0 0 1 776 1971)">Leading and trailing margins on the left and right side of each symbol</text>
  <text style="stroke:none;fill:black;font-family:-apple-system,&quot;SF Pro Display&quot;,&quot;SF Pro Text&quot;,Helvetica,sans-serif;" transform="matrix(1 0 0 1 776 1989)">can be adjusted by modifying the x-location of the margin guidelines.</text>
  <text style="stroke:none;fill:black;font-family:-apple-system,&quot;SF Pro Display&quot;,&quot;SF Pro Text&quot;,Helvetica,sans-serif;" transform="matrix(1 0 0 1 776 2007)">Modifications are automatically applied proportionally to all</text>
  <text style="stroke:none;fill:black;font-family:-apple-system,&quot;SF Pro Display&quot;,&quot;SF Pro Text&quot;,Helvetica,sans-serif;" transform="matrix(1 0 0 1 776 2025)">scales and weights.</text>
  <g id="" transform="matrix(1 0 0 1 1289 1933)">
   <path d="M2.8418 1.86523L4.54102 3.57422C5.40039 4.44336 6.38672 4.38477 7.31445 3.35938L17.4902-7.85156C17.7539-7.76367 18.0273-7.7832 18.3398-7.8418L19.4043-8.03711L20.0684-7.36328L20.0293-6.80664C19.9902-6.30859 20.1172-5.92773 20.6055-5.44922L21.3672-4.70703C21.8457-4.22852 22.4609-4.19922 22.9297-4.66797L25.8398-7.58789C26.3086-8.05664 26.2891-8.65234 25.8105-9.13086L25.0391-9.89258C24.5605-10.3711 24.1895-10.5273 23.7109-10.4883L23.1348-10.4395L22.4902-11.0742L22.7344-12.1973C22.8613-12.7637 22.7051-13.2031 22.1191-13.7891L19.9219-15.9766C16.582-19.2969 12.1484-19.2188 9.25781-16.3281C8.83789-15.918 8.80859-15.3418 9.04297-14.9512C9.27734-14.5898 9.73633-14.3555 10.3809-14.5215C11.8457-14.8633 13.3691-14.9219 14.7949-13.9844L14.209-12.5293C14.0137-12.0508 13.9844-11.6504 14.1113-11.2891L3.04688-0.898438C2.06055 0.0195312 1.98242 0.996094 2.8418 1.86523ZM10.752-15.957C13.1836-17.7344 16.4746-17.4316 18.7012-15.2051L21.1328-12.793C21.3672-12.5586 21.4062-12.373 21.3379-12.0312L21.0156-10.5469L22.5195-9.0625L23.5059-9.12109C23.7598-9.13086 23.8379-9.11133 24.0332-8.91602L24.6094-8.33984L22.168-5.89844L21.5918-6.47461C21.3965-6.66992 21.3672-6.74805 21.377-7.01172L21.4453-7.98828L19.9512-9.47266L18.4277-9.21875C18.1055-9.15039 17.959-9.17969 17.7148-9.41406L15.7129-11.416C15.459-11.6504 15.4297-11.8164 15.5859-12.1875L16.4648-14.2773C14.9023-15.7324 12.8711-16.3574 10.8398-15.7617C10.6836-15.7227 10.625-15.8496 10.752-15.957ZM5.27344 2.30469L4.10156 1.14258C3.63281 0.683594 3.74023 0.341797 4.14062-0.0195312L14.9512-10.1953L16.416-8.71094L6.42578 2.27539C6.07422 2.67578 5.74219 2.77344 5.27344 2.30469Z"/>
  </g>
  <text style="stroke:none;fill:black;font-family:-apple-system,&quot;SF Pro Display&quot;,&quot;SF Pro Text&quot;,Helvetica,sans-serif;font-weight:bold;" transform="matrix(1 0 0 1 1289 1953)">Exporting</text>
  <text style="stroke:none;fill:black;font-family:-apple-system,&quot;SF Pro Display&quot;,&quot;SF Pro Text&quot;,Helvetica,sans-serif;" transform="matrix(1 0 0 1 1289 1971)">Symbols should be outlined when exporting to ensure the</text>
  <text style="stroke:none;fill:black;font-family:-apple-system,&quot;SF Pro Display&quot;,&quot;SF Pro Text&quot;,Helvetica,sans-serif;" transform="matrix(1 0 0 1 1289 1989)">design is preserved when submitting to Xcode.</text>
  <text id="template-version" style="stroke:none;fill:black;font-family:-apple-system,&quot;SF Pro Display&quot;,&quot;SF Pro Text&quot;,Helvetica,sans-serif;text-anchor:end;" transform="matrix(1 0 0 1 3036 1933)">Template v.2.0</text>
  <text style="stroke:none;fill:black;font-family:-apple-system,&quot;SF Pro Display&quot;,&quot;SF Pro Text&quot;,Helvetica,sans-serif;text-anchor:end;" transform="matrix(1 0 0 1 3036 1951)">Requires Xcode 12 or greater</text>
  <text style="stroke:none;fill:black;font-family:-apple-system,&quot;SF Pro Display&quot;,&quot;SF Pro Text&quot;,Helvetica,sans-serif;text-anchor:end;" transform="matrix(1 0 0 1 3036 1969)">Generated from house</text>
  <text style="stroke:none;fill:black;font-family:-apple-system,&quot;SF Pro Display&quot;,&quot;SF Pro Text&quot;,Helvetica,sans-serif;text-anchor:end;" transform="matrix(1 0 0 1 3036 1987)">Typeset at 100 points</text>
  <text style="stroke:none;fill:black;font-family:-apple-system,&quot;SF Pro Display&quot;,&quot;SF Pro Text&quot;,Helvetica,sans-serif;" transform="matrix(1 0 0 1 263 726)">Small</text>
  <text style="stroke:none;fill:black;font-family:-apple-system,&quot;SF Pro Display&quot;,&quot;SF Pro Text&quot;,Helvetica,sans-serif;" transform="matrix(1 0 0 1 263 1156)">Medium</text>
  <text style="stroke:none;fill:black;font-family:-apple-system,&quot;SF Pro Display&quot;,&quot;SF Pro Text&quot;,Helvetica,sans-serif;" transform="matrix(1 0 0 1 263 1586)">Large</text>
 </g>
 <g id="Guides">
  <g id="H-reference" style="fill:#27AAE1;stroke:none;" transform="matrix(1 0 0 1 339 696)">
   <path d="M0.976562 0L3.66211 0L12.9883-24.4629L45.752-24.4629L55.127 0L57.7637 0L30.6152-70.459L28.125-70.459ZM29.3457-67.1387L29.4434-67.1387L44.873-26.709L13.8672-26.709Z"/>
  </g>
  <line id="Baseline-S" style="fill:none;stroke:#27AAE1;opacity:1;stroke-width:0.5;" x1="263" x2="3036" y1="696" y2="696"/>
  <line id="Capline-S" style="fill:none;stroke:#27AAE1;opacity:1;stroke-width:0.5;" x1="263" x2="3036" y1="625.541" y2="625.541"/>
  <g id="H-reference" style="fill:#27AAE1;stroke:none;" transform="matrix(1 0 0 1 339 1126)">
   <path d="M0.976562 0L3.66211 0L12.9883-24.4629L45.752-24.4629L55.127 0L57.7637 0L30.6152-70.459L28.125-70.459ZM29.3457-67.1387L29.4434-67.1387L44.873-26.709L13.8672-26.709Z"/>
  </g>
  <line id="Baseline-M" style="fill:none;stroke:#27AAE1;opacity:1;stroke-width:0.5;" x1="263" x2="3036" y1="1126" y2="1126"/>
  <line id="Capline-M" style="fill:none;stroke:#27AAE1;opacity:1;stroke-width:0.5;" x1="263" x2="3036" y1="1055.54" y2="1055.54"/>
  <g id="H-reference" style="fill:#27AAE1;stroke:none;" transform="matrix(1 0 0 1 339 1556)">
   <path d="M0.976562 0L3.66211 0L12.9883-24.4629L45.752-24.4629L55.127 0L57.7637 0L30.6152-70.459L28.125-70.459ZM29.3457-67.1387L29.4434-67.1387L44.873-26.709L13.8672-26.709Z"/>
  </g>
  <line id="Baseline-L" style="fill:none;stroke:#27AAE1;opacity:1;stroke-width:0.5;" x1="263" x2="3036" y1="1556" y2="1556"/>
  <line id="Capline-L" style="fill:none;stroke:#27AAE1;opacity:1;stroke-width:0.5;" x1="263" x2="3036" y1="1485.54" y2="1485.54"/>
  <line id="left-margin" style="fill:none;stroke:#00AEEF;stroke-width:0.5;opacity:1.0;" x1="1379.12" x2="1379.12" y1="1030.79" y2="1150.12"/>
  <line id="right-margin" style="fill:none;stroke:#00AEEF;stroke-width:0.5;opacity:1.0;" x1="1520.57" x2="1520.57" y1="1030.79" y2="1150.12"/>
 </g>
 <g id="Symbols">
  <g id="Black-L" transform="matrix(1 0 0 1 2834.28 1556)">
   <path d="M16.0645-37.207C16.0645-31.5918 20.0684-27.5879 26.2207-27.5879C28.8574-27.5879 31.6895-28.8574 34.0332-30.8594L37.7441-33.9844L37.7441 19.4824C37.7441 30.4688 44.7266 37.4023 56.3965 37.4023L141.699 37.4023C153.369 37.4023 160.352 30.4688 160.352 19.4824L160.352-34.1309L164.258-30.8594C166.602-28.8574 169.385-27.5879 172.07-27.5879C178.076-27.5879 182.178-31.3477 182.178-37.1582C182.178-40.1367 180.713-43.2129 178.125-45.3613L160.352-60.3027L160.352-89.4531C160.352-92.627 158.301-94.6289 155.176-94.6289L140.625-94.6289C137.451-94.6289 135.352-92.627 135.352-89.4531L135.352-81.25L112.402-100.586C104.443-107.227 93.9453-107.227 86.0352-100.586L20.166-45.3125C17.5293-43.0664 16.0645-40.0391 16.0645-37.207ZM117.139-21.0449C117.139-24.1699 115.137-26.1719 112.012-26.1719L86.3281-26.1719C83.2031-26.1719 81.1035-24.1699 81.1035-21.0449L81.1035 17.1387L63.5254 17.1387C60.0098 17.1387 58.0078 15.0879 58.0078 11.5723L58.0078-50.9277L95.0195-81.9824C97.7051-84.2773 100.635-84.2285 103.369-81.9824L140.088-51.123L140.088 11.5723C140.088 15.0879 138.037 17.1387 134.57 17.1387L117.139 17.1387Z"/>
  </g>
  <g id="Heavy-L" transform="matrix(1 0 0 1 2539.79 1556)">
   <path d="M16.0645-37.7441C16.0645-32.9102 19.5312-29.3945 24.9023-29.3945C27.2949-29.3945 29.7363-30.5664 31.7871-32.2754L36.7676-36.4746L36.7676 18.9453C36.7676 29.3457 43.2617 35.791 54.1504 35.791L139.404 35.791C150.342 35.791 156.836 29.3457 156.836 18.9453L156.836-36.6699L162.061-32.2754C164.111-30.5664 166.504-29.3945 168.896-29.3945C174.121-29.3945 177.734-32.6172 177.734-37.6465C177.734-40.332 176.465-42.9199 174.219-44.8242L156.836-59.4238L156.836-87.8906C156.836-90.8691 154.932-92.7734 151.953-92.7734L139.355-92.7734C136.377-92.7734 134.375-90.8691 134.375-87.8906L134.375-78.2715L108.691-99.8535C101.611-105.811 92.334-105.811 85.2051-99.8535L19.5801-44.7754C17.334-42.8223 16.0645-40.2344 16.0645-37.7441ZM114.893-21.0938C114.893-24.1211 112.939-26.0742 109.912-26.0742L83.9844-26.0742C80.957-26.0742 78.9062-24.1211 78.9062-21.0938L78.9062 18.2617L60.0586 18.2617C56.3477 18.2617 54.248 16.1621 54.248 12.4023L54.248-51.123L93.2129-83.7891C95.6055-85.8398 98.291-85.8398 100.732-83.7891L139.307-51.3672L139.307 12.4023C139.307 16.1621 137.256 18.2617 133.545 18.2617L114.893 18.2617Z"/>
  </g>
  <g id="Bold-L" transform="matrix(1 0 0 1 2245.59 1556)">
   <path d="M16.0645-38.3301C16.0645-34.4238 18.9453-31.3965 23.4375-31.3965C25.5371-31.3965 27.5391-32.4707 29.248-33.8867L35.6445-39.2578L35.6445 18.3594C35.6445 28.125 41.5527 33.9355 51.709 33.9355L136.865 33.9355C146.973 33.9355 152.93 28.0762 152.93 18.3594L152.93-39.502L159.57-33.8867C161.279-32.4707 163.281-31.3965 165.381-31.3965C169.629-31.3965 172.705-34.082 172.705-38.2324C172.705-40.5762 171.729-42.627 169.824-44.1895L152.93-58.4473L152.93-86.084C152.93-88.8672 151.123-90.6738 148.34-90.6738L137.939-90.6738C135.156-90.6738 133.252-88.8672 133.252-86.084L133.252-74.9512L104.59-99.0234C98.4375-104.248 90.5273-104.248 84.3262-99.0234L18.9941-44.1895C17.0898-42.5781 16.0645-40.4297 16.0645-38.3301ZM112.402-21.1426C112.402-24.1211 110.498-25.9766 107.568-25.9766L81.2988-25.9766C78.3691-25.9766 76.416-24.1211 76.416-21.1426L76.416 19.5312L56.1523 19.5312C52.2461 19.5312 50.0977 17.334 50.0977 13.3789L50.0977-51.3672L91.1621-85.8398C93.2617-87.6465 95.6055-87.6465 97.7539-85.8398L138.477-51.6113L138.477 13.3789C138.477 17.334 136.328 19.5312 132.373 19.5312L112.402 19.5312Z"/>
  </g>
  <g id="Semibold-L" transform="matrix(1 0 0 1 1950.59 1556)">
   <path d="M16.0645-38.7695C16.0645-35.498 18.5059-32.8125 22.4609-32.8125C24.3164-32.8125 26.0254-33.7402 27.4902-35.0098L34.8633-41.2109L34.8633 17.9688C34.8633 27.2461 40.4297 32.7148 50 32.7148L135.107 32.7148C144.678 32.7148 150.195 27.2461 150.195 17.9688L150.195-41.4551L157.861-35.0098C159.375-33.7402 161.084-32.8125 162.939-32.8125C166.602-32.8125 169.287-35.0586 169.287-38.623C169.287-40.7227 168.457-42.4316 166.797-43.7988L150.195-57.7637L150.195-84.8633C150.195-87.5 148.486-89.209 145.85-89.209L136.963-89.209C134.326-89.209 132.52-87.5 132.52-84.8633L132.52-72.6074L101.758-98.4863C96.2402-103.125 89.3066-103.125 83.7402-98.4863L18.5547-43.7988C16.8945-42.3828 16.0645-40.5273 16.0645-38.7695ZM110.645-21.1914C110.645-24.0723 108.838-25.9277 105.957-25.9277L79.4922-25.9277C76.6113-25.9277 74.707-24.0723 74.707-21.1914L74.707 20.3613L53.5156 20.3613C49.4141 20.3613 47.2168 18.1641 47.2168 14.0137L47.2168-51.5625L89.7949-87.2559C91.6504-88.8672 93.75-88.916 95.7031-87.2559L137.891-51.8066L137.891 14.0137C137.891 18.1641 135.693 20.3613 131.592 20.3613L110.645 20.3613Z"/>
  </g>
  <g id="Medium-L" transform="matrix(1 0 0 1 1655.2 1556)">
   <path d="M16.0645-39.0625C16.0645-36.2793 18.2129-33.8379 21.6797-33.8379C23.3887-33.8379 24.8535-34.7168 26.1719-35.8398L34.2773-42.6758L34.2773 17.6758C34.2773 26.6113 39.5508 31.7871 48.6816 31.7871L133.789 31.7871C142.92 31.7871 148.193 26.5625 148.193 17.6758L148.193-42.9199L156.592-35.8398C157.91-34.7168 159.375-33.8379 161.084-33.8379C164.258-33.8379 166.65-35.8398 166.65-38.9648C166.65-40.8203 165.967-42.2852 164.502-43.5059L148.193-57.2266L148.193-83.9355C148.193-86.4746 146.484-88.1348 143.945-88.1348L136.23-88.1348C133.643-88.1348 131.934-86.4746 131.934-83.9355L131.934-70.8984L99.6094-98.0469C94.5801-102.295 88.3301-102.295 83.252-98.0469L18.2617-43.457C16.748-42.2363 16.0645-40.625 16.0645-39.0625ZM109.326-21.2402C109.326-24.0234 107.52-25.8301 104.736-25.8301L78.0762-25.8301C75.293-25.8301 73.4375-24.0234 73.4375-21.2402L73.4375 21.0449L51.4648 21.0449C47.2656 21.0449 45.0195 18.7988 45.0195 14.502L45.0195-51.6602L88.7207-88.2812C90.4297-89.7949 92.3828-89.8438 94.1895-88.2812L137.451-51.9531L137.451 14.502C137.451 18.7988 135.205 21.0449 131.006 21.0449L109.326 21.0449Z"/>
  </g>
  <g id="Regular-L" transform="matrix(1 0 0 1 1360.2 1556)">
   <path d="M16.0645-39.502C16.0645-37.3047 17.7734-35.2051 20.7031-35.2051C22.168-35.2051 23.3887-36.0352 24.4629-36.9629L33.5449-44.5801L33.5449 17.2363C33.5449 25.7324 38.4277 30.5176 47.0215 30.5176L132.031 30.5176C140.625 30.5176 145.508 25.7324 145.508 17.2363L145.508-44.8242L154.883-36.9629C156.006-36.0352 157.178-35.2051 158.691-35.2051C161.23-35.2051 163.232-36.8164 163.232-39.3555C163.232-40.9668 162.695-42.041 161.523-43.0664L145.508-56.543L145.508-82.7148C145.508-85.1562 143.896-86.7188 141.455-86.7188L135.254-86.7188C132.812-86.7188 131.152-85.1562 131.152-82.7148L131.152-68.6035L96.8262-97.4609C92.4316-101.221 87.1094-101.221 82.666-97.4609L17.8223-43.0664C16.6016-42.041 16.0645-40.7715 16.0645-39.502ZM107.617-21.2891C107.617-24.0234 105.859-25.7812 103.125-25.7812L76.2695-25.7812C73.5352-25.7812 71.7285-24.0234 71.7285-21.2891L71.7285 21.875L48.8281 21.875C44.4336 21.875 42.1875 19.5801 42.1875 15.1367L42.1875-51.8066L87.3535-89.6973C88.8184-91.0156 90.5273-91.0645 92.1387-89.6973L136.865-52.0996L136.865 15.1367C136.865 19.5801 134.619 21.875 130.176 21.875L107.617 21.875Z"/>
  </g>
  <g id="Light-L" transform="matrix(1 0 0 1 1065.68 1556)">
   <path d="M16.0645-40.4785C16.0645-38.8184 17.3828-37.2559 19.5801-37.2559C20.7031-37.2559 21.5332-37.8418 22.3633-38.5254L32.6172-47.0703L32.6172 17.0898C32.6172 25.0488 37.0605 29.4434 45.1172 29.4434L129.785 29.4434C137.842 29.4434 142.285 25 142.285 17.0898L142.285-47.168L152.588-38.5254C153.418-37.8418 154.248-37.2559 155.371-37.2559C157.324-37.2559 158.838-38.4766 158.838-40.3809C158.838-41.6504 158.447-42.4805 157.422-43.3105L142.285-56.1035L142.285-82.3242C142.285-84.375 140.918-85.6934 138.916-85.6934L133.398-85.6934C131.396-85.6934 129.98-84.375 129.98-82.3242L129.98-66.4062L93.9453-96.7285C89.9902-100.146 85.2539-100.146 81.2012-96.7285L17.5293-43.3105C16.5039-42.4805 16.0645-41.5039 16.0645-40.4785ZM105.127-21.6797C105.127-24.1699 103.516-25.7812 101.025-25.7812L73.9746-25.7812C71.4844-25.7812 69.8242-24.1699 69.8242-21.6797L69.8242 22.8027L46.4844 22.8027C41.5527 22.8027 39.209 20.459 39.209 15.4785L39.209-52.6367L84.9609-91.0156C86.5723-92.4316 88.3301-92.627 90.1855-91.0156L135.645-52.7832L135.645 15.4785C135.645 20.459 133.301 22.8027 128.369 22.8027L105.127 22.8027Z"/>
  </g>
  <g id="Thin-L" transform="matrix(1 0 0 1 771.876 1556)">
   <path d="M16.0645-41.748C16.0645-40.7715 16.8457-39.9414 18.0664-39.9414C18.75-39.9414 19.1406-40.1855 19.6289-40.5762L31.3477-50.4395L31.3477 16.8457C31.3477 24.1699 35.2051 27.9785 42.5293 27.9785L126.807 27.9785C134.131 27.9785 137.988 24.0723 137.988 16.8457L137.988-50.293L149.512-40.5762C150-40.1855 150.342-39.9414 151.025-39.9414C152.197-39.9414 153.027-40.7227 153.027-41.748C153.027-42.5293 152.734-43.0176 152.051-43.6523L137.988-55.4688L137.988-81.8848C137.988-83.3984 136.963-84.375 135.498-84.375L130.908-84.375C129.492-84.375 128.418-83.3984 128.418-81.8848L128.418-63.5254L90.1855-95.752C86.7188-98.7793 82.8125-98.7793 79.248-95.752L17.0898-43.6523C16.3574-43.0176 16.0645-42.4805 16.0645-41.748ZM101.807-22.168C101.807-24.3652 100.391-25.7812 98.1934-25.7812L70.8984-25.7812C68.75-25.7812 67.334-24.3652 67.334-22.168L67.334 24.0723L43.3594 24.0723C37.7441 24.0723 35.3027 21.582 35.3027 15.9668L35.3027-53.7598L81.7871-92.7734C83.5938-94.3359 85.4492-94.6289 87.5977-92.7734L134.082-53.6133L134.082 15.9668C134.082 21.582 131.592 24.0723 125.977 24.0723L101.807 24.0723Z"/>
  </g>
  <g id="Ultralight-L" transform="matrix(1 0 0 1 476.654 1556)">
   <path d="M16.0645-42.4316C16.0645-41.7969 16.5527-41.3086 17.2852-41.3086C17.7734-41.3086 17.8711-41.4062 18.2129-41.6504L30.7129-52.1484L30.7129 16.6992C30.7129 23.6816 34.2773 27.2461 41.2598 27.2461L125.244 27.2461C132.227 27.2461 135.791 23.6328 135.791 16.6992L135.791-51.9043L147.9-41.6504C148.242-41.4062 148.34-41.3086 148.828-41.3086C149.561-41.3086 150.049-41.8457 150.049-42.4316C150.049-42.9688 149.854-43.2617 149.268-43.7988L135.791-55.1758L135.791-81.6406C135.791-82.8613 134.912-83.6914 133.74-83.6914L129.639-83.6914C128.516-83.6914 127.637-82.8613 127.637-81.6406L127.637-62.0605L88.2324-95.2637C85.0586-98.0469 81.543-98.0469 78.2227-95.2637L16.8457-43.7988C16.2598-43.2617 16.0645-42.9688 16.0645-42.4316ZM100.098-22.4609C100.098-24.4629 98.7793-25.7812 96.7773-25.7812L69.3359-25.7812C67.334-25.7812 66.0156-24.4629 66.0156-22.4609L66.0156 24.707L41.748 24.707C35.791 24.707 33.252 22.2168 33.252 16.2598L33.252-54.2969L80.1758-93.7012C82.0801-95.3125 83.9355-95.7031 86.2793-93.7012L133.252-54.0527L133.252 16.2598C133.252 22.2168 130.713 24.707 124.756 24.707L100.098 24.707Z"/>
  </g>
  <g id="Black-M" transform="matrix(1 0 0 1 2854.74 1126)">
   <path d="M12.4512-36.5723C12.4512-31.3965 16.0645-27.9785 21.4355-27.9785C23.7305-27.9785 26.2207-29.0039 28.3203-30.7617L30.0781-32.2266L30.0781 7.8125C30.0781 16.7969 35.9375 22.6562 45.6543 22.6562L111.719 22.6562C121.436 22.6562 127.246 16.7969 127.246 7.8125L127.246-32.2266L129.004-30.7617C131.104-29.0039 133.594-27.9785 135.889-27.9785C141.309-27.9785 144.873-31.3965 144.873-36.5723C144.873-39.1113 143.506-41.9922 141.162-43.9453L127.246-55.6152L127.246-79.248C127.246-81.6895 125.684-83.2031 123.242-83.2031L109.668-83.2031C107.227-83.2031 105.615-81.6895 105.615-79.248L105.615-73.7793L90.5273-86.4746C83.4473-92.3828 74.0234-92.3828 66.9434-86.4746L16.1621-43.8477C13.8184-41.8457 12.4512-39.1602 12.4512-36.5723ZM92.4805-24.3652C92.4805-26.8066 90.918-28.3691 88.4766-28.3691L68.8965-28.3691C66.4551-28.3691 64.8438-26.8066 64.8438-24.3652L64.8438 4.3457L52.6367 4.3457C49.9512 4.3457 48.3887 2.7832 48.3887 0.146484L48.3887-47.5586L74.8047-69.7266C77.3438-71.875 80.0293-71.875 82.666-69.7266L108.984-47.6074L108.984 0.146484C108.984 2.7832 107.422 4.3457 104.736 4.3457L92.4805 4.3457Z"/>
  </g>
  <g id="Heavy-M" transform="matrix(1 0 0 1 2559.91 1126)">
   <path d="M12.4512-36.8652C12.4512-32.4707 15.5762-29.4434 20.3125-29.4434C22.3633-29.4434 24.5605-30.3711 26.3672-31.8848L29.248-34.3262L29.248 7.27539C29.248 15.7715 34.668 21.1426 43.75 21.1426L109.766 21.1426C118.848 21.1426 124.268 15.7715 124.268 7.27539L124.268-34.375L127.197-31.8848C129.053-30.3711 131.201-29.4434 133.252-29.4434C137.939-29.4434 141.113-32.373 141.113-36.8652C141.113-39.1602 139.941-41.6016 137.939-43.2617L124.268-54.7852L124.268-77.5879C124.268-79.9316 122.754-81.4453 120.41-81.4453L108.789-81.4453C106.396-81.4453 104.834-79.9316 104.834-77.5879L104.834-71.0938L87.2559-85.8887C81.0059-91.1133 72.7051-91.1133 66.4551-85.8887L15.6738-43.2129C13.623-41.5039 12.4512-39.1113 12.4512-36.8652ZM90.6738-24.3164C90.6738-26.709 89.1602-28.2715 86.7676-28.2715L66.8945-28.2715C64.502-28.2715 62.8906-26.709 62.8906-24.3164L62.8906 5.32227L49.4629 5.32227C46.6797 5.32227 45.0684 3.75977 45.0684 0.927734L45.0684-47.5586L73.4375-71.3379C75.6348-73.2422 78.0273-73.2422 80.2734-71.3379L108.447-47.6562L108.447 0.927734C108.447 3.75977 106.836 5.32227 104.053 5.32227L90.6738 5.32227Z"/>
  </g>
  <g id="Bold-M" transform="matrix(1 0 0 1 2265.27 1126)">
   <path d="M12.4512-37.2559C12.4512-33.6914 15.0391-31.0059 19.043-31.0059C20.8984-31.0059 22.7051-31.8848 24.2188-33.2031L28.3203-36.6211L28.3203 6.68945C28.3203 14.5996 33.252 19.4824 41.6016 19.4824L107.666 19.4824C115.967 19.4824 120.947 14.5996 120.947 6.68945L120.947-36.7676L125.195-33.2031C126.709-31.8848 128.564-31.0059 130.371-31.0059C134.229-31.0059 136.963-33.4473 136.963-37.207C136.963-39.209 136.035-41.1133 134.326-42.5293L120.947-53.8086L120.947-75.7324C120.947-78.0273 119.434-79.4922 117.188-79.4922L107.764-79.4922C105.518-79.4922 103.955-78.0273 103.955-75.7324L103.955-68.0664L83.5938-85.2051C78.2715-89.6973 71.2891-89.6973 65.918-85.2051L15.0879-42.5293C13.3789-41.0645 12.4512-39.1113 12.4512-37.2559ZM88.6719-24.2676C88.6719-26.6113 87.1582-28.125 84.8145-28.125L64.6484-28.125C62.3047-28.125 60.7422-26.6113 60.7422-24.2676L60.7422 6.44531L45.8984 6.44531C43.0176 6.44531 41.4062 4.78516 41.4062 1.85547L41.4062-47.6074L71.9238-73.1934C73.7305-74.7559 75.7324-74.7559 77.5879-73.1934L107.861-47.7539L107.861 1.85547C107.861 4.78516 106.25 6.44531 103.32 6.44531L88.6719 6.44531Z"/>
  </g>
  <g id="Semibold-M" transform="matrix(1 0 0 1 1970 1126)">
   <path d="M12.4512-37.5C12.4512-34.5215 14.6484-32.1289 18.2129-32.1289C19.8242-32.1289 21.3867-32.959 22.7539-34.082L27.6855-38.2324L27.6855 6.25C27.6855 13.8184 32.2754 18.3594 40.0879 18.3594L106.201 18.3594C114.014 18.3594 118.604 13.8184 118.604 6.25L118.604-38.4277L123.779-34.082C125.146-32.959 126.709-32.1289 128.369-32.1289C131.641-32.1289 134.082-34.1797 134.082-37.4023C134.082-39.2578 133.301-40.8203 131.836-42.041L118.604-53.1738L118.604-74.4629C118.604-76.6602 117.188-78.125 114.99-78.125L107.08-78.125C104.883-78.125 103.369-76.6602 103.369-74.4629L103.369-65.9668L81.0547-84.7168C76.3672-88.6719 70.3125-88.6719 65.5762-84.7168L14.6973-42.041C13.2324-40.7715 12.4512-39.1113 12.4512-37.5ZM87.2559-24.2676C87.2559-26.5625 85.791-28.0273 83.4961-28.0273L63.1348-28.0273C60.791-28.0273 59.2773-26.5625 59.2773-24.2676L59.2773 7.17773L43.457 7.17773C40.4785 7.17773 38.8184 5.51758 38.8184 2.49023L38.8184-47.6074L70.8984-74.4629C72.4121-75.7812 74.1699-75.7812 75.7324-74.4629L107.471-47.8516L107.471 2.49023C107.471 5.51758 105.811 7.17773 102.832 7.17773L87.2559 7.17773Z"/>
  </g>
  <g id="Medium-M" transform="matrix(1 0 0 1 1674.39 1126)">
   <path d="M12.4512-37.6953C12.4512-35.1562 14.4043-32.959 17.5293-32.959C19.043-32.959 20.4102-33.7891 21.6309-34.7656L27.1973-39.4531L27.1973 5.95703C27.1973 13.1836 31.543 17.4805 39.0137 17.4805L105.078 17.4805C112.5 17.4805 116.895 13.1836 116.895 5.95703L116.895-39.6973L122.754-34.7656C123.926-33.7891 125.293-32.959 126.807-32.959C129.688-32.959 131.885-34.7656 131.885-37.5977C131.885-39.2578 131.25-40.5762 129.98-41.6504L116.895-52.6855L116.895-73.4863C116.895-75.6836 115.479-77.0508 113.281-77.0508L106.543-77.0508C104.395-77.0508 102.93-75.6836 102.93-73.4863L102.93-64.4043L79.1504-84.375C74.9023-87.9395 69.5312-87.9395 65.2832-84.375L14.4043-41.6504C13.0859-40.5762 12.4512-39.1113 12.4512-37.6953ZM86.2305-24.2188C86.2305-26.5137 84.7656-27.9785 82.4707-27.9785L61.9629-27.9785C59.668-27.9785 58.1543-26.5137 58.1543-24.2188L58.1543 7.76367L41.6016 7.76367C38.5742 7.76367 36.9141 6.05469 36.9141 2.97852L36.9141-47.6074L70.0684-75.4395C71.4355-76.6113 72.998-76.6113 74.3652-75.4395L107.129-47.9004L107.129 2.97852C107.129 6.05469 105.469 7.76367 102.441 7.76367L86.2305 7.76367Z"/>
  </g>
  <g id="Regular-M" transform="matrix(1 0 0 1 1379.12 1126)">
   <path d="M12.4512-37.9883C12.4512-35.9863 14.0137-34.082 16.6504-34.082C18.0176-34.082 19.1406-34.8145 20.166-35.6445L26.5137-41.0156L26.5137 5.56641C26.5137 12.4023 30.5664 16.3574 37.5488 16.3574L103.613 16.3574C110.547 16.3574 114.6 12.4023 114.6 5.56641L114.6-41.3574L121.387-35.6445C122.363-34.8145 123.486-34.082 124.854-34.082C127.148-34.082 129.004-35.498 129.004-37.8418C129.004-39.3066 128.516-40.2832 127.49-41.1621L114.6-52.002L114.6-72.2168C114.6-74.3652 113.232-75.7324 111.084-75.7324L105.859-75.7324C103.76-75.7324 102.344-74.3652 102.344-72.2168L102.344-62.3047L76.6602-83.8867C73.0469-86.9629 68.5547-86.9629 64.8926-83.8867L14.0137-41.1621C12.9395-40.2832 12.4512-39.1113 12.4512-37.9883ZM84.8633-24.2188C84.8633-26.4648 83.3984-27.9297 81.1523-27.9297L60.4492-27.9297C58.1543-27.9297 56.6895-26.4648 56.6895-24.2188L56.6895 8.49609L39.209 8.49609C36.084 8.49609 34.375 6.73828 34.375 3.56445L34.375-47.6074L69.043-76.6602C70.1172-77.6367 71.4355-77.6367 72.5098-76.6602L106.738-47.9492L106.738 3.56445C106.738 6.73828 105.029 8.49609 101.953 8.49609L84.8633 8.49609Z"/>
  </g>
  <g id="Light-M" transform="matrix(1 0 0 1 1084.36 1126)">
   <path d="M35.791 15.3809L101.562 15.3809C108.057 15.3809 111.719 11.7676 111.719 5.37109L111.719-43.457L119.287-37.0605C120.068-36.4258 120.85-35.8887 121.875-35.8887C123.682-35.8887 125.098-37.0117 125.098-38.7695C125.098-39.8926 124.707-40.6738 123.828-41.4062L111.719-51.6113L111.719-71.875C111.719-73.6816 110.547-74.8047 108.789-74.8047L104.199-74.8047C102.49-74.8047 101.27-73.6816 101.27-71.875L101.27-60.3516L74.1211-83.252C70.8496-86.0352 66.8945-86.0352 63.5742-83.252L13.7207-41.4062C12.8418-40.6738 12.4512-39.7461 12.4512-38.8672C12.4512-37.3047 13.6719-35.8887 15.6738-35.8887C16.6992-35.8887 17.5293-36.4258 18.2617-37.0605L25.6836-43.3105L25.6836 5.37109C25.6836 11.8164 29.3457 15.3809 35.791 15.3809ZM82.5684-24.5605C82.5684-26.6113 81.25-27.9297 79.248-27.9297L58.3496-27.9297C56.2988-27.9297 54.9805-26.6113 54.9805-24.5605L54.9805 9.32617L37.0605 9.32617C33.4961 9.32617 31.7383 7.51953 31.7383 3.90625L31.7383-48.3398L66.8945-77.8809C68.1152-78.9062 69.4336-79.0039 70.752-77.8809L105.664-48.5352L105.664 3.90625C105.664 7.51953 103.906 9.32617 100.293 9.32617L82.5684 9.32617Z"/>
  </g>
  <g id="Thin-M" transform="matrix(1 0 0 1 790.26 1126)">
   <path d="M33.5449 14.0625L98.9258 14.0625C104.736 14.0625 107.861 10.9375 107.861 5.17578L107.861-46.2402L116.504-38.916C116.992-38.5742 117.383-38.2812 118.018-38.2812C119.092-38.2812 119.873-39.0137 119.873-39.9902C119.873-40.6738 119.629-41.1621 118.994-41.6504L107.861-51.0254L107.861-71.4844C107.861-72.7539 106.982-73.584 105.762-73.584L102.002-73.584C100.781-73.584 99.8535-72.7539 99.8535-71.4844L99.8535-57.7637L70.7031-82.373C67.9199-84.7656 64.6973-84.7656 61.8164-82.373L13.3301-41.6504C12.6953-41.1621 12.4512-40.625 12.4512-39.9902C12.4512-39.1113 13.1836-38.2812 14.3066-38.2812C14.9414-38.2812 15.332-38.5742 15.8203-38.916L24.5605-46.2891L24.5605 5.17578C24.5605 10.9863 27.6855 14.0625 33.5449 14.0625ZM79.5898-25C79.5898-26.7578 78.4668-27.9297 76.709-27.9297L55.6152-27.9297C53.8574-27.9297 52.7344-26.7578 52.7344-25L52.7344 10.4492L34.2773 10.4492C30.0781 10.4492 28.1738 8.54492 28.1738 4.3457L28.1738-49.3164L64.0625-79.4434C65.4297-80.6152 66.8457-80.8594 68.457-79.4434L104.248-49.2676L104.248 4.3457C104.248 8.54492 102.344 10.4492 98.1445 10.4492L79.5898 10.4492Z"/>
  </g>
  <g id="Ultralight-M" transform="matrix(1 0 0 1 494.892 1126)">
   <path d="M32.373 13.4277L97.5586 13.4277C103.076 13.4277 105.908 10.498 105.908 5.07812L105.908-47.6562L115.088-39.8926C115.43-39.6484 115.576-39.5508 116.016-39.5508C116.699-39.5508 117.188-40.0391 117.188-40.625C117.188-41.1133 116.992-41.4062 116.504-41.7969L105.908-50.7812L105.908-71.2891C105.908-72.3145 105.176-72.998 104.199-72.998L100.879-72.998C99.9023-72.998 99.1699-72.3145 99.1699-71.2891L99.1699-56.4453L68.9453-81.8848C66.4062-84.1309 63.5742-84.1309 60.9375-81.8848L13.1348-41.7969C12.6465-41.4062 12.4512-41.1133 12.4512-40.625C12.4512-39.9902 12.9395-39.5508 13.623-39.5508C14.0625-39.5508 14.209-39.6484 14.5508-39.8926L23.9746-47.8516L23.9746 5.07812C23.9746 10.5957 26.8555 13.4277 32.373 13.4277ZM78.0762-25.2441C78.0762-26.8555 77.0508-27.9297 75.4395-27.9297L54.1992-27.9297C52.5879-27.9297 51.5625-26.8555 51.5625-25.2441L51.5625 11.0352L32.8613 11.0352C28.3203 11.0352 26.3672 9.08203 26.3672 4.58984L26.3672-49.8535L62.6465-80.2734C64.0625-81.4941 65.5273-81.7871 67.2852-80.2734L103.516-49.6582L103.516 4.58984C103.516 9.08203 101.562 11.0352 97.0703 11.0352L78.0762 11.0352Z"/>
  </g>
  <g id="Black-S" transform="matrix(1 0 0 1 2871.88 696)">
   <path d="M35.6445 10.0098L87.4023 10.0098C94.9707 10.0098 99.5117 5.46875 99.5117-1.5625L99.5117-33.0078L100.977-31.7871C102.588-30.4199 104.541-29.6387 106.299-29.6387C110.498-29.6387 113.281-32.2754 113.281-36.2793C113.281-38.2812 112.207-40.4785 110.4-41.9922L99.5117-51.123L99.5117-69.5801C99.5117-71.4844 98.291-72.7051 96.3867-72.7051L85.8887-72.7051C83.9844-72.7051 82.7148-71.4844 82.7148-69.5801L82.7148-65.2344L70.7031-75.3418C65.2344-79.9316 57.9102-79.9316 52.4414-75.3418L12.6465-41.9434C10.8398-40.3809 9.76562-38.2812 9.76562-36.2793C9.76562-32.2754 12.5488-29.6387 16.748-29.6387C18.5059-29.6387 20.459-30.4199 22.0703-31.7871L23.5352-33.0078L23.5352-1.5625C23.5352 5.46875 28.0762 10.0098 35.6445 10.0098ZM72.3633-26.709C72.3633-28.6133 71.1426-29.834 69.2383-29.834L53.8574-29.834C51.9531-29.834 50.6836-28.6133 50.6836-26.709L50.6836-4.15039L41.0156-4.15039C38.916-4.15039 37.6953-5.37109 37.6953-7.4707L37.6953-44.873L58.5449-62.3535C60.498-64.0137 62.5977-64.0137 64.5996-62.3535L85.3516-44.9219L85.3516-7.4707C85.3516-5.37109 84.1309-4.15039 82.0312-4.15039L72.3633-4.15039Z"/>
  </g>
  <g id="Heavy-S" transform="matrix(1 0 0 1 2576.39 696)">
   <path d="M34.375 8.98438L86.1816 8.98438C93.3105 8.98438 97.5586 4.73633 97.5586-1.95312L97.5586-34.4238L99.8047-32.5195C101.27-31.2988 103.027-30.5176 104.639-30.5176C108.35-30.5176 110.84-32.8613 110.84-36.4258C110.84-38.2324 109.912-40.1367 108.35-41.4551L97.5586-50.5371L97.5586-68.3594C97.5586-70.2148 96.3379-71.4355 94.4336-71.4355L85.4004-71.4355C83.4961-71.4355 82.2266-70.2148 82.2266-68.3594L82.2266-63.3789L68.5059-74.9512C63.5742-79.0527 57.1289-79.0527 52.1973-74.9512L12.3047-41.4551C10.6934-40.0391 9.76562-38.1836 9.76562-36.4258C9.76562-32.959 12.207-30.5176 16.0156-30.5176C17.627-30.5176 19.3848-31.2988 20.8008-32.5195L22.998-34.3262L22.998-1.95312C22.998 4.73633 27.2461 8.98438 34.375 8.98438ZM71.2402-26.6602C71.2402-28.5156 70.0195-29.7363 68.1152-29.7363L52.5391-29.7363C50.6836-29.7363 49.4141-28.5156 49.4141-26.6602L49.4141-3.51562L38.8184-3.51562C36.7188-3.51562 35.4492-4.73633 35.4492-6.88477L35.4492-44.8242L57.7637-63.4766C59.4238-64.8926 61.2793-64.8926 62.9883-63.4766L85.0586-44.9219L85.0586-6.88477C85.0586-4.73633 83.8379-3.51562 81.6895-3.51562L71.2402-3.51562Z"/>
  </g>
  <g id="Bold-S" transform="matrix(1 0 0 1 2281.02 696)">
   <path d="M32.959 7.8125L84.7656 7.8125C91.4062 7.8125 95.3613 3.90625 95.3613-2.39258L95.3613-36.0352L98.5352-33.3496C99.8047-32.2754 101.27-31.543 102.783-31.543C105.908-31.543 108.154-33.4961 108.154-36.5234C108.154-38.1836 107.373-39.7461 106.055-40.8691L95.3613-49.8535L95.3613-66.9922C95.3613-68.8477 94.1406-70.0684 92.2852-70.0684L84.8145-70.0684C82.959-70.0684 81.6895-68.8477 81.6895-66.9922L81.6895-61.3281L66.0156-74.5117C61.7676-78.0762 56.2012-78.0762 51.9531-74.5117L11.9141-40.8691C10.498-39.6973 9.76562-38.1348 9.76562-36.6211C9.76562-33.7402 11.8652-31.543 15.1367-31.543C16.6504-31.543 18.1152-32.2754 19.3848-33.3496L22.3633-35.8398L22.3633-2.39258C22.3633 3.95508 26.3184 7.8125 32.959 7.8125ZM69.9707-26.5625C69.9707-28.4668 68.75-29.6875 66.8457-29.6875L51.123-29.6875C49.2188-29.6875 47.9492-28.4668 47.9492-26.5625L47.9492-2.7832L36.377-2.7832C34.2285-2.7832 32.959-4.05273 32.959-6.20117L32.959-44.7266L56.8359-64.7461C58.2031-65.918 59.7656-65.918 61.1328-64.7461L84.7656-44.9219L84.7656-6.20117C84.7656-4.05273 83.4961-2.7832 81.3477-2.7832L69.9707-2.7832Z"/>
  </g>
  <g id="Semibold-S" transform="matrix(1 0 0 1 1985.26 696)">
   <path d="M31.9824 7.03125L83.8379 7.03125C90.0879 7.03125 93.8477 3.36914 93.8477-2.68555L93.8477-37.1094L97.6562-33.8867C98.7793-32.959 100.098-32.2266 101.514-32.2266C104.248-32.2266 106.25-33.9355 106.25-36.6211C106.25-38.1836 105.664-39.502 104.443-40.4785L93.8477-49.4141L93.8477-66.0156C93.8477-67.8711 92.627-69.0918 90.7715-69.0918L84.4238-69.0918C82.5684-69.0918 81.3477-67.8711 81.3477-66.0156L81.3477-59.9121L64.3066-74.2188C60.498-77.3926 55.6152-77.3926 51.8066-74.2188L11.6211-40.4785C10.4004-39.4531 9.76562-38.0371 9.76562-36.7188C9.76562-34.2285 11.6211-32.2266 14.5996-32.2266C15.9668-32.2266 17.2852-32.959 18.4082-33.8867L21.9238-36.8652L21.9238-2.68555C21.9238 3.36914 25.6836 7.03125 31.9824 7.03125ZM69.0918-26.5137C69.0918-28.418 67.8711-29.5898 66.0156-29.5898L50.0977-29.5898C48.2422-29.5898 46.9727-28.418 46.9727-26.5137L46.9727-2.24609L34.7168-2.24609C32.5195-2.24609 31.25-3.56445 31.25-5.76172L31.25-44.6777L56.2012-65.625C57.373-66.6016 58.7402-66.6016 59.8633-65.625L84.5215-44.9219L84.5215-5.76172C84.5215-3.56445 83.252-2.24609 81.1035-2.24609L69.0918-2.24609Z"/>
  </g>
  <g id="Medium-S" transform="matrix(1 0 0 1 1689.26 696)">
   <path d="M31.2012 6.44531L83.1055 6.44531C89.1113 6.44531 92.6758 2.92969 92.6758-2.88086L92.6758-37.9395L96.9727-34.3262C97.998-33.4473 99.2188-32.7637 100.537-32.7637C102.979-32.7637 104.834-34.2773 104.834-36.7188C104.834-38.1348 104.297-39.3066 103.271-40.1855L92.6758-49.0234L92.6758-65.2832C92.6758-67.1387 91.5039-68.3594 89.6484-68.3594L84.1309-68.3594C82.2754-68.3594 81.0547-67.1387 81.0547-65.2832L81.0547-58.8379L62.9883-73.9746C59.5703-76.9043 55.127-76.9043 51.6602-73.9746L11.4258-40.1855C10.3027-39.2578 9.76562-37.9883 9.76562-36.8164C9.76562-34.668 11.4258-32.7637 14.1602-32.7637C15.4785-32.7637 16.6504-33.4473 17.6758-34.3262L21.6309-37.6465L21.6309-2.88086C21.6309 2.92969 25.1953 6.44531 31.2012 6.44531ZM68.457-26.4648C68.457-28.3691 67.2363-29.541 65.332-29.541L49.3652-29.541C47.4609-29.541 46.2402-28.3691 46.2402-26.4648L46.2402-1.9043L33.3984-1.9043C31.2012-1.9043 29.9316-3.17383 29.9316-5.41992L29.9316-44.6289L55.7617-66.2598C56.7383-67.1387 57.959-67.0898 58.9355-66.2598L84.375-44.9219L84.375-5.41992C84.375-3.17383 83.1055-1.9043 80.9082-1.9043L68.457-1.9043Z"/>
  </g>
  <g id="Regular-S" transform="matrix(1 0 0 1 1393.47 696)">
   <path d="M30.2734 5.66406L82.1777 5.66406C87.8418 5.66406 91.2109 2.39258 91.2109-3.22266L91.2109-39.0137L96.0938-34.8633C97.0215-34.1309 98.0469-33.4473 99.2676-33.4473C101.318-33.4473 102.979-34.7168 102.979-36.8164C102.979-38.1348 102.588-39.0137 101.66-39.7949L91.2109-48.584L91.2109-64.3555C91.2109-66.2109 89.9902-67.3828 88.1836-67.3828L83.7891-67.3828C81.9336-67.3828 80.7129-66.2109 80.7129-64.3555L80.7129-57.4219L61.3281-73.6816C58.3008-76.2207 54.541-76.2207 51.5137-73.6816L11.1328-39.7949C10.2051-39.0137 9.76562-37.9395 9.76562-36.9629C9.76562-35.1562 11.1816-33.4473 13.5742-33.4473C14.7949-33.4473 15.8203-34.1309 16.6992-34.8633L21.1914-38.6719L21.1914-3.22266C21.1914 2.39258 24.5605 5.66406 30.2734 5.66406ZM67.5781-26.416C67.5781-28.2715 66.3574-29.4922 64.502-29.4922L48.3398-29.4922C46.4844-29.4922 45.2637-28.2715 45.2637-26.416L45.2637-1.36719L31.7383-1.36719C29.541-1.36719 28.2715-2.73438 28.2715-4.98047L28.2715-44.5801L55.127-67.1387C55.957-67.8223 56.9336-67.7734 57.666-67.1387L84.1797-44.9219L84.1797-4.98047C84.1797-2.73438 82.8613-1.36719 80.6641-1.36719L67.5781-1.36719Z"/>
  </g>
  <g id="Light-S" transform="matrix(1 0 0 1 1098.49 696)">
   <path d="M28.7109 4.78516L80.3711 4.78516C85.6445 4.78516 88.623 1.85547 88.623-3.36914L88.623-40.8691L94.2871-36.1328C94.9707-35.5469 95.7031-35.0586 96.6309-35.0586C98.2422-35.0586 99.5117-36.0352 99.5117-37.6465C99.5117-38.6719 99.1699-39.3555 98.4375-39.9902L88.623-48.1934L88.623-64.0625C88.623-65.625 87.6465-66.6016 86.1328-66.6016L82.2754-66.6016C80.7617-66.6016 79.7363-65.625 79.7363-64.0625L79.7363-55.6641L59.0332-73.0957C56.3477-75.3906 53.0762-75.3906 50.3418-73.0957L10.8887-39.9902C10.1074-39.3555 9.76562-38.5254 9.76562-37.7441C9.76562-36.377 10.8398-35.0586 12.6465-35.0586C13.623-35.0586 14.3555-35.5469 15.0391-36.1328L20.459-40.6738L20.459-3.36914C20.459 1.85547 23.4863 4.78516 28.7109 4.78516ZM65.5762-26.709C65.5762-28.418 64.502-29.4922 62.793-29.4922L46.5332-29.4922C44.8242-29.4922 43.75-28.418 43.75-26.709L43.75-0.634766L29.8828-0.634766C27.2461-0.634766 25.8789-2.00195 25.8789-4.6875L25.8789-45.2148L53.2227-68.1641C54.1504-68.9941 55.1758-68.9941 56.1523-68.1641L83.2031-45.4102L83.2031-4.6875C83.2031-2.00195 81.8359-0.634766 79.1992-0.634766L65.5762-0.634766Z"/>
  </g>
  <g id="Thin-S" transform="matrix(1 0 0 1 804.078 696)">
   <path d="M26.709 3.66211L78.0273 3.66211C82.7148 3.66211 85.2539 1.12305 85.2539-3.51562L85.2539-43.3105L91.8457-37.793C92.2363-37.4512 92.627-37.1582 93.2129-37.1582C94.1895-37.1582 94.9219-37.793 94.9219-38.7207C94.9219-39.3555 94.6777-39.7461 94.1406-40.2344L85.2539-47.7051L85.2539-63.7207C85.2539-64.7949 84.5215-65.5273 83.4473-65.5273L80.3223-65.5273C79.2969-65.5273 78.5156-64.7949 78.5156-63.7207L78.5156-53.3691L56.0547-72.3145C53.7598-74.2676 51.123-74.2676 48.7793-72.3145L10.5469-40.2344C10.0098-39.7461 9.76562-39.3066 9.76562-38.7695C9.76562-37.9395 10.4492-37.1582 11.4746-37.1582C12.0605-37.1582 12.4512-37.4512 12.8418-37.793L19.4824-43.3105L19.4824-3.51562C19.4824 1.12305 22.0215 3.66211 26.709 3.66211ZM62.9395-27.1484C62.9395-28.5645 62.0117-29.4922 60.5957-29.4922L44.0918-29.4922C42.6758-29.4922 41.748-28.5645 41.748-27.1484L41.748 0.341797L27.3926 0.341797C24.2188 0.341797 22.7539-1.12305 22.7539-4.29688L22.7539-46.0938L50.7324-69.5801C51.8066-70.459 52.8809-70.6055 54.1016-69.5801L81.9336-46.0938L81.9336-4.29688C81.9336-1.12305 80.5176 0.341797 77.3438 0.341797L62.9395 0.341797Z"/>
  </g>
  <g id="Ultralight-S" transform="matrix(1 0 0 1 508.564 696)">
   <path d="M25.6836 3.07617L76.8066 3.07617C81.2012 3.07617 83.4961 0.732422 83.4961-3.66211L83.4961-44.5801L90.5762-38.623C90.8691-38.3789 91.0156-38.2812 91.4062-38.2812C92.0898-38.2812 92.5293-38.7207 92.5293-39.2578C92.5293-39.6973 92.3828-39.9902 91.9434-40.332L83.4961-47.4609L83.4961-63.5254C83.4961-64.4043 82.9102-64.9902 82.0312-64.9902L79.3457-64.9902C78.5156-64.9902 77.8809-64.4043 77.8809-63.5254L77.8809-52.1973L54.4922-71.9238C52.4414-73.7305 50.1465-73.7305 47.998-71.9238L10.3516-40.332C9.91211-39.9902 9.76562-39.6973 9.76562-39.3066C9.76562-38.7207 10.2051-38.2812 10.8887-38.2812C11.2793-38.2812 11.4746-38.3789 11.7188-38.623L18.9453-44.6777L18.9453-3.66211C18.9453 0.78125 21.2891 3.07617 25.6836 3.07617ZM61.5723-27.3438C61.5723-28.6621 60.7422-29.4922 59.4238-29.4922L42.8711-29.4922C41.5527-29.4922 40.7227-28.6621 40.7227-27.3438L40.7227 0.878906L26.123 0.878906C22.6562 0.878906 21.1914-0.634766 21.1914-4.10156L21.1914-46.5332L49.4629-70.3125C50.5859-71.2402 51.709-71.4355 53.0273-70.3125L81.2988-46.4355L81.2988-4.10156C81.2988-0.634766 79.7852 0.878906 76.3672 0.878906L61.5723 0.878906Z"/>
  </g>
 </g>
</svg>
